<svg width="138" height="34" viewBox="0 0 138 34" fill="none" xmlns="http://www.w3.org/2000/svg">
<g clip-path="url(#clip0_1_764)">
<path fill-rule="evenodd" clip-rule="evenodd" d="M79.3527 28.3329C74.3551 32.0284 67.1114 34.0001 60.8747 34.0001C52.1298 34.0001 44.2572 30.7553 38.3012 25.3585C37.8333 24.9341 38.2525 24.3557 38.8141 24.6862C45.2417 28.4381 53.1892 30.6952 61.3988 30.6952C66.9355 30.6952 73.0262 29.546 78.6265 27.1612C79.4725 26.8006 80.1801 27.717 79.3527 28.3329Z" fill="#FF9900"/>
<path fill-rule="evenodd" clip-rule="evenodd" d="M81.4303 25.948C80.7939 25.1293 77.2076 25.5612 75.5979 25.7527C75.1075 25.8128 75.0327 25.3847 75.4744 25.0767C78.3307 23.06 83.0176 23.6421 83.5641 24.3181C84.1107 24.9979 83.4219 29.7111 80.7378 31.9607C80.326 32.3062 79.9329 32.1222 80.1164 31.664C80.7191 30.1543 82.0705 26.7705 81.4303 25.948Z" fill="#FF9900"/>
<path fill-rule="evenodd" clip-rule="evenodd" d="M75.7103 10.8395V8.87904C75.7103 8.58235 75.9349 8.3833 76.2044 8.3833H84.9531C85.2338 8.3833 85.4584 8.5861 85.4584 8.87904V10.5578C85.4547 10.8395 85.2188 11.2075 84.7996 11.7896L80.2662 18.283C81.9507 18.2417 83.7289 18.4934 85.2563 19.3571C85.6007 19.5524 85.6943 19.8379 85.7205 20.1195V22.2114C85.7205 22.4968 85.406 22.8311 85.0766 22.6583C82.385 21.2425 78.8099 21.0885 75.8338 22.6733C75.5306 22.8386 75.2124 22.5081 75.2124 22.2227V20.236C75.2124 19.9167 75.2161 19.3722 75.5343 18.8877L80.7865 11.3314H76.2157C75.9349 11.3314 75.7103 11.1324 75.7103 10.8395Z" fill="black"/>
<path fill-rule="evenodd" clip-rule="evenodd" d="M43.7967 23.0711H41.1351C40.8805 23.0523 40.6784 22.8608 40.6597 22.6167V8.91251C40.6597 8.63836 40.888 8.42053 41.1725 8.42053H43.6545C43.9128 8.43179 44.1187 8.63084 44.1374 8.87871V10.6701H44.1861C44.8337 8.9388 46.0503 8.13135 47.69 8.13135C49.3559 8.13135 50.3966 8.9388 51.1453 10.6701C51.7892 8.9388 53.2529 8.13135 54.8214 8.13135C55.937 8.13135 57.1574 8.59329 57.9024 9.62983C58.7447 10.7828 58.5725 12.4578 58.5725 13.9262L58.5687 22.5754C58.5687 22.8495 58.3404 23.0711 58.0558 23.0711H55.3979C55.1322 23.0523 54.9188 22.8382 54.9188 22.5754V15.312C54.9188 14.7337 54.9712 13.2915 54.8439 12.7432C54.6455 11.8231 54.0503 11.564 53.2791 11.564C52.6352 11.564 51.9614 11.9959 51.6881 12.6869C51.4148 13.3779 51.441 14.5346 51.441 15.312V22.5754C51.441 22.8495 51.2127 23.0711 50.9282 23.0711H48.2703C48.0007 23.0523 47.7911 22.8382 47.7911 22.5754L47.7874 15.312C47.7874 13.7835 48.0382 11.5339 46.1477 11.5339C44.2347 11.5339 44.3096 13.7272 44.3096 15.312V22.5754C44.3096 22.8495 44.0813 23.0711 43.7967 23.0711" fill="black"/>
<path fill-rule="evenodd" clip-rule="evenodd" d="M92.9904 8.13135C96.9398 8.13135 99.0773 11.5339 99.0773 15.8604C99.0773 20.0403 96.7152 23.3565 92.9904 23.3565C89.1121 23.3565 87.0007 19.954 87.0007 15.7139C87.0007 11.4475 89.1383 8.13135 92.9904 8.13135ZM93.0128 10.9293C91.0512 10.9293 90.9277 13.6108 90.9277 15.282C90.9277 16.957 90.9015 20.5323 92.9904 20.5323C95.0531 20.5323 95.1504 17.648 95.1504 15.8904C95.1504 14.7337 95.1017 13.3516 94.7536 12.255C94.4541 11.3011 93.8589 10.9293 93.0128 10.9293Z" fill="black"/>
<path fill-rule="evenodd" clip-rule="evenodd" d="M104.199 23.0711H101.548C101.282 23.0523 101.069 22.8382 101.069 22.5754L101.065 8.86744C101.088 8.61582 101.309 8.42053 101.578 8.42053H104.045C104.277 8.43179 104.468 8.58953 104.52 8.8036V10.8992H104.569C105.314 9.02518 106.359 8.13135 108.197 8.13135C109.391 8.13135 110.555 8.56324 111.304 9.74625C112 10.8429 112 12.6869 112 14.0126V22.6392C111.97 22.8796 111.749 23.0711 111.487 23.0711H108.818C108.575 23.0523 108.373 22.872 108.346 22.6392V15.1956C108.346 13.6971 108.519 11.5039 106.68 11.5039C106.033 11.5039 105.438 11.9395 105.142 12.6005C104.768 13.438 104.719 14.2717 104.719 15.1956V22.5754C104.715 22.8495 104.483 23.0711 104.199 23.0711" fill="black"/>
<path fill-rule="evenodd" clip-rule="evenodd" d="M68.7361 16.5252C68.7361 17.5655 68.7623 18.433 68.2382 19.3569C67.8152 20.108 67.1413 20.57 66.3964 20.57C65.3744 20.57 64.7754 19.7888 64.7754 18.6358C64.7754 16.36 66.8081 15.9468 68.7361 15.9468V16.5252ZM71.4202 23.0336C71.2442 23.1914 70.9897 23.2027 70.7913 23.0975C69.9078 22.3614 69.7468 22.0196 69.2639 21.3173C67.8039 22.8121 66.767 23.259 64.8765 23.259C62.6341 23.259 60.8934 21.8732 60.8934 19.0978C60.8934 16.9308 62.0614 15.4549 63.731 14.7338C65.176 14.0953 67.1937 13.9827 68.7361 13.8062V13.4606C68.7361 12.8259 68.7847 12.0748 68.4104 11.5265C68.0884 11.0345 67.467 10.8317 66.9167 10.8317C65.9022 10.8317 65 11.3537 64.7792 12.4354C64.7342 12.6757 64.5583 12.9123 64.315 12.9236L61.7357 12.6457C61.5185 12.5969 61.2752 12.4203 61.3389 12.0861C61.9303 8.94641 64.7604 8 67.2911 8C68.5863 8 70.2784 8.34552 71.3004 9.32948C72.5956 10.5425 72.4721 12.1612 72.4721 13.9226V18.0838C72.4721 19.3344 72.9887 19.8827 73.4754 20.5587C73.6438 20.7991 73.6813 21.0882 73.4641 21.2685C72.9213 21.7229 71.9555 22.568 71.4239 23.0412L71.4202 23.0336" fill="black"/>
<path fill-rule="evenodd" clip-rule="evenodd" d="M33.8427 16.5252C33.8427 17.5655 33.8689 18.433 33.3448 19.3569C32.9218 20.108 32.2517 20.57 31.503 20.57C30.481 20.57 29.8858 19.7888 29.8858 18.6358C29.8858 16.36 31.9185 15.9468 33.8427 15.9468V16.5252ZM36.5268 23.0336C36.3508 23.1914 36.0963 23.2027 35.8979 23.0975C35.0144 22.3614 34.8572 22.0196 34.3705 21.3173C32.9105 22.8121 31.8773 23.259 29.9831 23.259C27.7445 23.259 26 21.8732 26 19.0978C26 16.9308 27.1717 15.4549 28.8376 14.7338C30.2826 14.0953 32.3004 13.9827 33.8427 13.8062V13.4606C33.8427 12.8259 33.8913 12.0748 33.5207 11.5265C33.1951 11.0345 32.5736 10.8317 32.0271 10.8317C31.0126 10.8317 30.1066 11.3537 29.8858 12.4354C29.8409 12.6757 29.6649 12.9123 29.4253 12.9236L26.8423 12.6457C26.6252 12.5969 26.3856 12.4203 26.4455 12.0861C27.0407 8.94641 29.8671 8 32.3977 8C33.6929 8 35.385 8.34552 36.407 9.32948C37.7023 10.5425 37.5787 12.1612 37.5787 13.9226V18.0838C37.5787 19.3344 38.0953 19.8827 38.582 20.5587C38.7542 20.7991 38.7916 21.0882 38.5745 21.2685C38.0317 21.7229 37.0659 22.568 36.5343 23.0412L36.5268 23.0336" fill="black"/>
</g>
<defs>
<clipPath id="clip0_1_764">
<rect width="86" height="26" fill="white" transform="translate(26 8)"/>
</clipPath>
</defs>
</svg>
