<svg width="138" height="82" viewBox="0 0 138 82" fill="none" xmlns="http://www.w3.org/2000/svg">
<path d="M84.5802 41.6961C83.8842 42.301 83.0224 42.614 82.0333 42.614H74.7932C73.8055 42.614 72.9622 42.3009 72.2689 41.6961C71.5741 41.0898 71.2162 40.2981 71.2162 39.3368V38.7529C71.2162 37.8337 71.5741 37.0617 72.31 36.4357C73.0471 35.7887 73.8678 35.4757 74.7932 35.4757H79.4029V37.6456H74.7932C74.479 37.6456 74.2045 37.7507 73.9314 37.9599C73.6569 38.1887 73.531 38.4399 73.531 38.7528V39.3368C73.531 40.0679 73.9513 40.4231 74.7932 40.4231H82.0333C82.8951 40.4231 83.3167 40.0682 83.3167 39.3368V33.7436C83.3167 33.4502 83.1907 33.2005 82.9176 32.9716C82.6432 32.7416 82.3488 32.6361 82.0333 32.6361H71.427V30.4649H82.0333C82.9799 30.4649 83.8006 30.7792 84.5165 31.4263C85.2536 32.0733 85.6103 32.8453 85.6103 33.7435V39.3366C85.6103 40.2979 85.2735 41.0896 84.5802 41.6959V41.6961ZM99.1298 39.3371C98.5623 41.5293 97.3824 42.6143 95.5528 42.6143H92.4372C90.6076 42.6143 89.429 41.5293 88.8602 39.3371L86.5666 30.4654H89.0286L91.2387 38.9202C91.492 39.921 92.0182 40.4233 92.7753 40.4233H95.216C95.9943 40.4233 96.5418 39.921 96.7951 38.9202L98.9826 30.4655H101.445L99.1298 39.3371ZM115.594 36.6451C114.857 37.2921 114.036 37.6038 113.111 37.6038H108.481V35.4129H113.111C113.405 35.4129 113.68 35.3088 113.953 35.0997C114.226 34.8697 114.375 34.6197 114.375 34.3278V33.7438C114.375 33.0126 113.953 32.6365 113.111 32.6365H105.851C105.008 32.6365 104.588 33.0126 104.588 33.7438V39.3159C104.588 39.629 104.715 39.8801 104.988 40.0892C105.261 40.318 105.535 40.4232 105.851 40.4232H116.479V42.5931H105.851C104.924 42.5931 104.105 42.2799 103.368 41.6541C102.632 41.0071 102.273 40.2351 102.273 39.3159V33.7438C102.273 32.7615 102.632 31.9895 103.327 31.3846C104.02 30.7796 104.862 30.4653 105.851 30.4653H113.111C114.1 30.4653 114.942 30.7796 115.637 31.3635C116.33 31.9684 116.689 32.7615 116.689 33.7438V34.3278C116.689 35.2247 116.33 35.9966 115.594 36.645V36.6451ZM41.5713 36.5234C41.5713 37.323 40.9177 37.9713 40.1116 37.9713C39.3055 37.9713 38.6506 37.323 38.6506 36.5234C38.6506 35.7238 39.3055 35.0742 40.1116 35.0742C40.9177 35.0742 41.5713 35.7238 41.5713 36.5234ZM41.5713 31.9001C41.5713 32.6997 40.9177 33.348 40.1116 33.348C39.3055 33.348 38.6506 32.6997 38.6506 31.9001C38.6506 31.0992 39.3055 30.4521 40.1116 30.4521C40.9177 30.4521 41.5713 31.0992 41.5713 31.9001ZM46.4254 41.1463C46.4254 41.9459 45.7718 42.5955 44.9644 42.5955C44.1596 42.5955 43.506 41.9458 43.506 41.1463C43.506 40.3467 44.1596 39.6984 44.9644 39.6984C45.7718 39.6984 46.4254 40.3467 46.4254 41.1463Z" fill="#1D2329"/>
<path d="M46.4255 36.5235C46.4255 37.3231 45.7718 37.9714 44.9644 37.9714C44.1597 37.9714 43.506 37.323 43.506 36.5235C43.506 35.7239 44.1597 35.0742 44.9644 35.0742C45.7718 35.0742 46.4255 35.7239 46.4255 36.5235Z" fill="#3875E1"/>
<path d="M58.7173 39.3161L58.6656 39.5263C58.0796 41.5582 56.9249 42.5642 55.1656 42.5642H53.5613C51.737 42.5642 50.5651 41.4832 49.9989 39.3014L47.7133 30.4653H50.166L52.3668 38.8846C52.6187 39.884 53.1424 40.3824 53.8967 40.3824H54.8301C55.6057 40.3824 56.1506 39.8893 56.4025 38.8911C56.4025 38.8911 56.9739 37.142 58.7173 37.121C58.7173 37.121 60.4289 36.9566 61.0163 38.8201L61.04 38.8831" fill="#1D2329"/>
<path d="M61.0404 38.8829C61.275 39.8495 61.8624 40.3821 62.6167 40.3821H63.5501C64.3257 40.3821 64.8693 39.8837 65.1225 38.8842L67.3021 30.4662H69.7534L67.4479 39.3011C66.8818 41.4841 65.7085 42.5651 63.8855 42.5651H62.2813C60.4583 42.5651 59.2757 41.4762 58.7096 39.2932L61.0404 38.8829ZM33.8294 33.7415C33.8294 33.4481 33.7047 33.1971 33.4343 32.9682C33.1625 32.7367 32.892 32.6316 32.5791 32.6316H23.5783V40.4393H32.5791C33.413 40.4393 33.8293 40.0845 33.8293 39.3504L33.8294 33.7415ZM35.1008 41.7162C34.4127 42.3239 33.5576 42.6368 32.5791 42.6368H21.3073V30.4551H32.5791C33.4966 30.4551 34.308 30.7693 35.0371 31.4177C35.7663 32.0674 36.1203 32.842 36.1203 33.7415V39.3504C36.1203 40.3144 35.7875 41.1087 35.1008 41.7162ZM21.4213 45.8721H24.9929V46.4165H23.5041V50.1146H22.8862V46.4166H21.4213L21.4213 45.8721ZM25.4722 45.8721H26.0277V47.679C26.2611 47.3961 26.5514 47.2556 26.8975 47.2556C27.0857 47.2556 27.2541 47.3014 27.4039 47.395C27.5523 47.4882 27.6638 47.6171 27.7367 47.7829C27.8096 47.9473 27.8454 48.1919 27.8454 48.5168V50.1146H27.2898V48.38C27.2898 48.175 27.2381 48.0106 27.1374 47.8855C27.0353 47.7606 26.9014 47.6976 26.7357 47.6976C26.6124 47.6976 26.497 47.7274 26.3883 47.7923C26.2796 47.8553 26.1589 47.9593 26.0277 48.1054V50.1149H25.4722L25.4722 45.8721ZM29.0281 48.4281H30.4454C30.4323 48.207 30.3645 48.0362 30.2465 47.9165C30.1285 47.7969 29.9694 47.7365 29.7692 47.7365C29.569 47.7365 29.4047 47.7969 29.2773 47.9165C29.15 48.0362 29.0665 48.2073 29.0281 48.4281H29.0281ZM30.9942 48.7621H29.0122C29.0269 49.0305 29.1169 49.2434 29.284 49.4026C29.4497 49.5602 29.6658 49.6408 29.9296 49.6408C30.2969 49.6408 30.6363 49.5263 30.9465 49.2989V49.8381C30.7755 49.9511 30.6058 50.0316 30.4374 50.0801C30.2691 50.1285 30.0702 50.1524 29.8448 50.1524C29.5332 50.1524 29.2827 50.0894 29.0904 49.9615C28.8982 49.8325 28.7444 49.6618 28.6291 49.4447C28.5137 49.2288 28.4567 48.9791 28.4567 48.6951C28.4567 48.269 28.5773 47.9218 28.82 47.6548C29.0639 47.3879 29.3781 47.255 29.7666 47.255C30.1404 47.255 30.4374 47.3851 30.6601 47.6456C30.8829 47.9062 30.9942 48.2545 30.9942 48.6924V48.7621ZM35.5222 46.3848C35.0423 46.3848 34.6459 46.5388 34.3317 46.8464C34.0188 47.154 33.8623 47.5421 33.8623 48.0103C33.8623 48.4653 34.0201 48.8441 34.3356 49.1479C34.6499 49.4502 35.0463 49.6016 35.5222 49.6016C35.9916 49.6016 36.388 49.4465 36.7088 49.136C37.031 48.827 37.1914 48.4456 37.1914 47.9919C37.1914 47.5276 37.0336 47.1436 36.7181 46.8399C36.4026 46.536 36.0035 46.3848 35.5222 46.3848ZM37.7243 50.3775L37.1105 50.9759C36.9183 50.9684 36.718 50.9326 36.5099 50.8745C36.3017 50.8167 36.0896 50.7365 35.8749 50.6351C35.6601 50.5337 35.3737 50.3589 35.0158 50.1144C34.4974 50.0212 34.0691 49.7762 33.7324 49.3792C33.3956 48.9821 33.2286 48.5244 33.2286 48.0063C33.2286 47.3724 33.4447 46.8477 33.8782 46.4321C34.3117 46.0178 34.8606 45.81 35.5248 45.81C36.1851 45.81 36.7326 46.0166 37.1702 46.4281C37.6077 46.8397 37.8251 47.3579 37.8251 47.9812C37.8251 48.506 37.6607 48.9663 37.3292 49.3634C36.9991 49.7606 36.5709 50.0105 36.0472 50.1144L36.209 50.1747C36.7114 50.3667 37.0747 50.4625 37.2961 50.4625C37.4181 50.4625 37.5613 50.4364 37.7243 50.3772V50.3775ZM40.3276 50.1139V49.7561C40.2082 49.8836 40.073 49.9835 39.9192 50.0547C39.7667 50.1244 39.6143 50.1598 39.4618 50.1598C39.2829 50.1598 39.1185 50.1166 38.9673 50.0282C38.8175 49.9402 38.7035 49.8206 38.6252 49.6692C38.5483 49.5194 38.5099 49.2681 38.5099 48.9183V47.3165H39.0667V48.9118C39.0667 49.2063 39.1092 49.4115 39.1953 49.5272C39.2802 49.6443 39.43 49.7021 39.6448 49.7021C39.9126 49.7021 40.1406 49.5731 40.3276 49.3154V47.3165H40.883V50.1137L40.3276 50.1139ZM42.9306 49.5563V48.7239L42.5581 48.8674C42.3685 48.9424 42.2346 49.0173 42.155 49.0937C42.0769 49.1701 42.0384 49.2648 42.0384 49.3793C42.0384 49.4948 42.0756 49.5895 42.1497 49.6633C42.224 49.7356 42.3194 49.7725 42.4388 49.7725C42.6151 49.7725 42.7795 49.7002 42.9306 49.5567L42.9306 49.5563ZM43.4795 48.4257V49.6145C43.4795 49.7092 43.5115 49.7566 43.5776 49.7566C43.6453 49.7566 43.75 49.7081 43.8945 49.6093V49.9485C43.7686 50.0276 43.6664 50.0813 43.5909 50.1103C43.514 50.1402 43.4344 50.1536 43.3509 50.1536C43.1136 50.1536 42.9731 50.0615 42.9306 49.8788C42.6933 50.0615 42.4401 50.1536 42.171 50.1536C41.9734 50.1536 41.8103 50.0891 41.6791 49.9601C41.5479 49.8311 41.4816 49.6693 41.4816 49.4748C41.4816 49.2985 41.5452 49.1408 41.6725 49.0014C41.8011 48.8635 41.9814 48.7528 42.2174 48.6715L42.9306 48.4281V48.2782C42.9306 47.9375 42.7609 47.7679 42.4229 47.7679C42.1193 47.7679 41.8236 47.923 41.5359 48.2335V47.6325C41.752 47.3813 42.0636 47.2551 42.4693 47.2551C42.7729 47.2551 43.0168 47.3341 43.2011 47.4918C43.2621 47.5432 43.3165 47.61 43.3655 47.6942C43.4145 47.7785 43.4464 47.8627 43.4583 47.9466C43.4715 48.0308 43.4794 48.19 43.4794 48.4253L43.4795 48.4257ZM44.9293 47.3171V47.659C45.1785 47.3895 45.4609 47.2553 45.7778 47.2553C45.9528 47.2553 46.1171 47.3 46.2683 47.3906C46.4194 47.4812 46.5334 47.6049 46.613 47.7626C46.6912 47.9192 46.731 48.169 46.731 48.5109V50.114H46.1742V48.5135C46.1742 48.2254 46.1304 48.0204 46.0429 47.8981C45.9541 47.7743 45.8069 47.7128 45.6014 47.7128C45.3376 47.7128 45.1135 47.8429 44.9292 48.1021V50.1142H44.3578V47.3169L44.9293 47.3171ZM47.0985 47.7594L48.1485 46.735V47.3175H49.0408V47.8146H48.1485V49.1837C48.1485 49.5031 48.2811 49.6637 48.5489 49.6637C48.7491 49.6637 48.9599 49.5992 49.1826 49.4691V49.9819C48.9679 50.1016 48.7345 50.1609 48.4813 50.1609C48.2268 50.1609 48.0146 50.0874 47.8463 49.9387C47.7948 49.8955 47.7501 49.845 47.7137 49.7888C47.6791 49.7322 47.65 49.6599 47.6275 49.5693C47.6038 49.4798 47.5918 49.3076 47.5918 49.0551V47.8149H47.0986L47.0985 47.7594ZM51.3963 50.1139V49.7561C51.277 49.8836 51.1418 49.9835 50.988 50.0547C50.8355 50.1244 50.6831 50.1598 50.5306 50.1598C50.3516 50.1598 50.1872 50.1166 50.036 50.0282C49.8849 49.9402 49.7709 49.8206 49.694 49.6692C49.6171 49.5194 49.5786 49.2681 49.5786 48.9183V47.3165H50.1355V48.9118C50.1355 49.2063 50.1779 49.4115 50.2641 49.5272C50.349 49.6443 50.4987 49.7021 50.7135 49.7021C50.9813 49.7021 51.2094 49.5731 51.3963 49.3154V47.3165H51.9518V50.1137L51.3963 50.1139ZM55.0281 48.0842V50.1134H54.4646V48.5497C54.4646 48.2381 54.4221 48.0211 54.3387 47.8975C54.2551 47.7752 54.1093 47.7133 53.9011 47.7133C53.7858 47.7133 53.6784 47.7394 53.5816 47.795C53.4849 47.8501 53.3748 47.9463 53.2502 48.0842V50.1135H52.6947V47.3176H53.2502V47.6859C53.5339 47.3992 53.8123 47.2545 54.0841 47.2545C54.4407 47.2545 54.7178 47.4267 54.914 47.7687C55.211 47.4268 55.5213 47.2545 55.8447 47.2545C56.1179 47.2545 56.3419 47.3544 56.5183 47.5531C56.6946 47.7518 56.7821 48.0555 56.7821 48.4631V50.1136H56.2266V48.4513C56.2266 48.2187 56.1788 48.0397 56.0834 47.9147C55.9879 47.791 55.85 47.7295 55.6711 47.7295C55.4417 47.7295 55.2269 47.848 55.0281 48.0844V48.0842ZM63.065 49.1274V49.7954C62.6155 50.0389 62.0972 50.1611 61.5085 50.1611C61.0312 50.1611 60.6255 50.065 60.2927 49.8745C59.96 49.6836 59.6962 49.4221 59.5026 49.088C59.309 48.7525 59.211 48.391 59.211 48.0017C59.211 47.3837 59.4337 46.8642 59.8778 46.4421C60.3219 46.0212 60.8695 45.8095 61.5205 45.8095C61.9699 45.8095 62.4684 45.9265 63.0186 46.1592V46.8128C62.5174 46.5276 62.0296 46.3854 61.5509 46.3854C61.0617 46.3854 60.6547 46.5378 60.3312 46.8456C60.0077 47.1532 59.846 47.5387 59.846 48.0003C59.846 48.4672 60.0051 48.8512 60.3233 49.151C60.6428 49.4507 61.0498 49.6008 61.5456 49.6008C62.064 49.6008 62.5705 49.4431 63.065 49.1273L63.065 49.1274ZM65.0195 47.8066C64.753 47.8066 64.5356 47.8935 64.3645 48.0683C64.1935 48.242 64.1086 48.4628 64.1086 48.7324C64.1086 48.9994 64.1961 49.2177 64.3712 49.386C64.5448 49.5557 64.7702 49.6399 65.0433 49.6399C65.3164 49.6399 65.5391 49.5545 65.7128 49.3834C65.8865 49.2123 65.9727 48.9942 65.9727 48.7259C65.9727 48.4616 65.8825 48.2419 65.7022 48.0683C65.5206 47.8935 65.2938 47.8066 65.0194 47.8066L65.0195 47.8066ZM65.0487 47.3095C65.4757 47.3095 65.831 47.4463 66.1134 47.7212C66.3957 47.9959 66.5363 48.3406 66.5363 48.7562C66.5363 49.1599 66.3931 49.4939 66.1067 49.7609C65.8203 50.0278 65.4597 50.1607 65.0235 50.1607C64.6033 50.1607 64.2519 50.0253 63.9696 49.7543C63.6858 49.4848 63.5453 49.1467 63.5453 48.7417C63.5453 48.3314 63.6872 47.9908 63.9735 47.7185C64.2586 47.4464 64.6178 47.3096 65.0487 47.3096L65.0487 47.3095ZM69.4628 48.0842V50.1134H68.8994V48.5497C68.8994 48.2381 68.8569 48.0211 68.7735 47.8975C68.6899 47.7752 68.5441 47.7133 68.336 47.7133C68.2206 47.7133 68.1132 47.7394 68.0164 47.795C67.9197 47.8501 67.8096 47.9463 67.685 48.0842V50.1135H67.1295V47.3176H67.685V47.6859C67.9687 47.3992 68.2471 47.2545 68.5189 47.2545C68.8756 47.2545 69.1526 47.4267 69.3489 47.7687C69.6458 47.4268 69.9561 47.2545 70.2796 47.2545C70.5527 47.2545 70.7768 47.3544 70.9531 47.5531C71.1294 47.7518 71.2169 48.0555 71.2169 48.4631V50.1136H70.6614V48.4513C70.6614 48.2187 70.6137 48.0397 70.5182 47.9147C70.4227 47.791 70.2849 47.7295 70.1059 47.7295C69.8765 47.7295 69.6618 47.848 69.4629 48.0844L69.4628 48.0842ZM72.9444 47.8377H72.5506V49.5525C72.7216 49.642 72.9006 49.6867 73.0876 49.6867C73.3488 49.6867 73.5609 49.5973 73.728 49.4172C73.8937 49.2372 73.9758 49.0042 73.9758 48.7215C73.9758 48.5389 73.9374 48.3782 73.8578 48.2389C73.7797 48.0995 73.6735 47.9969 73.5383 47.9339C73.4031 47.8694 73.2042 47.8378 72.9444 47.8378V47.8377ZM71.9792 51.5437V47.317H72.955C73.4548 47.317 73.8433 47.4407 74.1217 47.6879C74.4001 47.9351 74.5406 48.2797 74.5406 48.7242C74.5406 49.1437 74.4093 49.487 74.1469 49.7566C73.8857 50.0261 73.5516 50.1603 73.1459 50.1603C72.9669 50.1603 72.768 50.1208 72.5506 50.0421V51.544L71.9792 51.5437ZM76.9382 50.1139V49.7561C76.8189 49.8836 76.6837 49.9835 76.5298 50.0547C76.3774 50.1244 76.2249 50.1598 76.0725 50.1598C75.8935 50.1598 75.7291 50.1166 75.5779 50.0282C75.4281 49.9402 75.3141 49.8206 75.2372 49.6692C75.1603 49.5194 75.1206 49.2681 75.1206 48.9183V47.3165H75.6774V48.9118C75.6774 49.2063 75.7198 49.4115 75.806 49.5272C75.8908 49.6443 76.0406 49.7021 76.2555 49.7021C76.5232 49.7021 76.7513 49.5731 76.9382 49.3154V47.3165H77.4937V50.1137L76.9382 50.1139ZM77.8913 47.7594L78.9413 46.735V47.3175H79.8336V47.8146H78.9413V49.1837C78.9413 49.5031 79.0739 49.6637 79.3417 49.6637C79.5419 49.6637 79.7527 49.5992 79.9755 49.4691V49.9819C79.7607 50.1016 79.5273 50.1609 79.2754 50.1609C79.0195 50.1609 78.8074 50.0874 78.6391 49.9387C78.5876 49.8955 78.543 49.845 78.5065 49.7888C78.4719 49.7322 78.4428 49.6599 78.4203 49.5693C78.3966 49.4798 78.3846 49.3076 78.3846 49.0551V47.8149H77.8914L77.8913 47.7594ZM80.4199 47.3175H80.9753V50.1147H80.4199V47.3175ZM80.6983 46.1445C80.7897 46.1445 80.868 46.1743 80.9329 46.2377C80.9992 46.3007 81.031 46.3771 81.031 46.4692C81.031 46.5571 80.9991 46.6347 80.9329 46.6992C80.8679 46.7637 80.7897 46.7965 80.6983 46.7965C80.6121 46.7965 80.5365 46.7629 80.4715 46.6977C80.4052 46.6321 80.3734 46.5556 80.3734 46.4688C80.3734 46.3834 80.4053 46.3085 80.4715 46.2425C80.5365 46.1769 80.612 46.1441 80.6983 46.1441V46.1445ZM82.3297 47.3171V47.659C82.579 47.3895 82.8614 47.2553 83.1783 47.2553C83.3533 47.2553 83.5177 47.3 83.6688 47.3906C83.82 47.4812 83.9339 47.6049 84.0135 47.7626C84.0917 47.9192 84.1315 48.169 84.1315 48.5109V50.114H83.5747V48.5135C83.5747 48.2254 83.531 48.0204 83.4434 47.8981C83.3559 47.7743 83.2074 47.7128 83.0019 47.7128C82.7381 47.7128 82.514 47.8429 82.3297 48.1021V50.1142H81.7584V47.3169L82.3297 47.3171ZM85.7781 47.7987C85.627 47.7987 85.4984 47.8501 85.3911 47.9512C85.285 48.0526 85.2319 48.1748 85.2319 48.3169C85.2319 48.4615 85.2836 48.58 85.3884 48.6747C85.4931 48.7694 85.6244 48.8168 85.7848 48.8168C85.9412 48.8168 86.0725 48.7683 86.1786 48.6721C86.2833 48.5748 86.3363 48.4552 86.3363 48.3105C86.3363 48.1644 86.2833 48.0421 86.1773 47.9448C86.0712 47.8475 85.9373 47.7987 85.7782 47.7987H85.7781ZM85.6443 50.2487C85.456 50.2487 85.3036 50.2882 85.1842 50.3669C85.0649 50.4459 85.0053 50.5469 85.0053 50.6707C85.0053 50.9574 85.2665 51.1007 85.7875 51.1007C86.0341 51.1007 86.225 51.0634 86.3602 50.993C86.4955 50.9206 86.5631 50.8193 86.5631 50.6877C86.5631 50.5587 86.4782 50.4536 86.3071 50.3708C86.1361 50.2892 85.9147 50.2485 85.6443 50.2485V50.2487ZM84.7308 48.2851C84.7308 47.9865 84.8409 47.7512 85.0596 47.5776C85.2797 47.4038 85.5793 47.317 85.9585 47.317H87.1199V47.7523H86.5511C86.6612 47.8626 86.7381 47.964 86.7818 48.0561C86.8243 48.1467 86.8454 48.2522 86.8454 48.3692C86.8454 48.5154 86.803 48.6585 86.7195 48.7992C86.6359 48.9398 86.5286 49.0479 86.396 49.1228C86.2647 49.1978 86.0486 49.2581 85.7477 49.3029C85.5342 49.3327 85.4281 49.4054 85.4281 49.5187C85.4281 49.5832 85.4666 49.6369 85.5462 49.6779C85.6244 49.72 85.7662 49.7633 85.9731 49.8069C86.3178 49.8833 86.5405 49.9411 86.6399 49.9843C86.7394 50.0265 86.8282 50.0868 86.909 50.1659C87.0443 50.3001 87.112 50.4682 87.112 50.6709C87.112 50.9367 86.9925 51.1482 86.7553 51.3061C86.518 51.4638 86.1999 51.5428 85.8021 51.5428C85.4004 51.5428 85.0795 51.4638 84.8396 51.3046C84.6009 51.1454 84.4803 50.9326 84.4803 50.6641C84.4803 50.2853 84.715 50.0421 85.1843 49.9316C84.9974 49.812 84.9032 49.6934 84.9032 49.5767C84.9032 49.4873 84.943 49.4056 85.0252 49.3333C85.1048 49.2599 85.2148 49.2069 85.3513 49.1715C84.9377 48.9888 84.7309 48.6941 84.7309 48.2851L84.7308 48.2851ZM93.0598 49.1274V49.7954C92.6103 50.0389 92.0919 50.1611 91.5033 50.1611C91.026 50.1611 90.6203 50.065 90.2875 49.8745C89.9546 49.6836 89.6909 49.4221 89.4974 49.088C89.3023 48.7525 89.2069 48.391 89.2069 48.0017C89.2069 47.3837 89.4282 46.8642 89.8725 46.4421C90.3166 46.0212 90.8641 45.8095 91.5151 45.8095C91.9645 45.8095 92.463 45.9265 93.0119 46.1592V46.8128C92.5121 46.5276 92.0242 46.3854 91.5456 46.3854C91.0563 46.3854 90.6493 46.5378 90.3258 46.8456C90.0023 47.1532 89.8407 47.5387 89.8407 48.0003C89.8407 48.4672 89.9996 48.8512 90.3179 49.151C90.6374 49.4507 91.0444 49.6008 91.5403 49.6008C92.0586 49.6008 92.5651 49.4431 93.0596 49.1273L93.0598 49.1274ZM95.014 47.8066C94.7476 47.8066 94.5301 47.8935 94.3591 48.0683C94.1881 48.242 94.1031 48.4628 94.1031 48.7324C94.1031 48.9994 94.1907 49.2177 94.3658 49.386C94.5395 49.5557 94.765 49.6399 95.038 49.6399C95.3112 49.6399 95.5339 49.5545 95.7075 49.3834C95.8812 49.2123 95.9672 48.9942 95.9672 48.7259C95.9672 48.4616 95.877 48.2419 95.6966 48.0683C95.5151 47.8935 95.2883 47.8066 95.0139 47.8066L95.014 47.8066ZM95.0439 47.3095C95.4708 47.3095 95.8261 47.4463 96.1085 47.7212C96.3908 47.9959 96.5315 48.3406 96.5315 48.7562C96.5315 49.1599 96.3883 49.4939 96.1019 49.7609C95.8155 50.0278 95.4549 50.1607 95.0187 50.1607C94.5985 50.1607 94.2471 50.0253 93.9647 49.7543C93.681 49.4848 93.5405 49.1467 93.5405 48.7417C93.5405 48.3314 93.6825 47.9908 93.9687 47.7185C94.2536 47.4464 94.6131 47.3096 95.0439 47.3096V47.3095ZM99.4575 48.0842V50.1134H98.8941V48.5497C98.8941 48.2381 98.8516 48.0211 98.7682 47.8975C98.6847 47.7752 98.5389 47.7133 98.3306 47.7133C98.2153 47.7133 98.1078 47.7394 98.0112 47.795C97.9142 47.8501 97.8045 47.9463 97.6797 48.0842V50.1135H97.1229V47.3176H97.6797V47.6859C97.9635 47.3992 98.2418 47.2545 98.5137 47.2545C98.8703 47.2545 99.1474 47.4267 99.3436 47.7687C99.6405 47.4268 99.9508 47.2545 100.276 47.2545C100.547 47.2545 100.771 47.3544 100.948 47.5531C101.124 47.7518 101.212 48.0555 101.212 48.4631V50.1136H100.656V48.4513C100.656 48.2187 100.608 48.0397 100.513 47.9147C100.418 47.791 100.28 47.7295 100.101 47.7295C99.8714 47.7295 99.6565 47.848 99.4576 48.0844L99.4575 48.0842ZM102.939 47.8377H102.545V49.5525C102.716 49.642 102.895 49.6867 103.082 49.6867C103.343 49.6867 103.556 49.5973 103.723 49.4172C103.888 49.2372 103.971 49.0042 103.971 48.7215C103.971 48.5389 103.932 48.3782 103.853 48.2389C103.774 48.0995 103.668 47.9969 103.533 47.9339C103.398 47.8694 103.199 47.8378 102.939 47.8378L102.939 47.8377ZM101.974 51.5437V47.317H102.95C103.45 47.317 103.838 47.4407 104.118 47.6879C104.395 47.9351 104.534 48.2797 104.534 48.7242C104.534 49.1437 104.404 49.487 104.142 49.7566C103.881 50.0261 103.546 50.1603 103.141 50.1603C102.962 50.1603 102.763 50.1208 102.545 50.0421V51.544L101.974 51.5437ZM106.396 49.5563V48.7239L106.024 48.8674C105.833 48.9424 105.699 49.0173 105.621 49.0937C105.542 49.1701 105.503 49.2648 105.503 49.3793C105.503 49.4948 105.54 49.5895 105.615 49.6633C105.69 49.7356 105.785 49.7725 105.904 49.7725C106.081 49.7725 106.245 49.7002 106.396 49.5567L106.396 49.5563ZM106.944 48.4257V49.6145C106.944 49.7092 106.978 49.7566 107.043 49.7566C107.111 49.7566 107.216 49.7081 107.36 49.6093V49.9485C107.233 50.0276 107.132 50.0813 107.056 50.1103C106.979 50.1402 106.9 50.1536 106.816 50.1536C106.579 50.1536 106.439 50.0615 106.396 49.8788C106.157 50.0615 105.906 50.1536 105.636 50.1536C105.439 50.1536 105.276 50.0891 105.145 49.9601C105.012 49.8311 104.947 49.6693 104.947 49.4748C104.947 49.2985 105.01 49.1408 105.138 49.0014C105.266 48.8635 105.447 48.7528 105.683 48.6715L106.396 48.4281V48.2782C106.396 47.9375 106.226 47.7679 105.888 47.7679C105.585 47.7679 105.289 47.923 105.001 48.2335V47.6325C105.217 47.3813 105.529 47.2551 105.935 47.2551C106.238 47.2551 106.482 47.3341 106.666 47.4918C106.727 47.5432 106.782 47.61 106.831 47.6942C106.88 47.7785 106.91 47.8627 106.923 47.9466C106.939 48.0308 106.942 48.19 106.942 48.4253L106.944 48.4257ZM108.394 47.3171V47.659C108.644 47.3895 108.926 47.2553 109.243 47.2553C109.418 47.2553 109.582 47.3 109.733 47.3906C109.885 47.4812 109.998 47.6049 110.078 47.7626C110.156 47.9192 110.196 48.169 110.196 48.5109V50.114H109.639V48.5135C109.639 48.2254 109.596 48.0204 109.508 47.8981C109.421 47.7743 109.272 47.7128 109.067 47.7128C108.803 47.7128 108.579 47.8429 108.394 48.1021V50.1142H107.823V47.3169L108.394 47.3171ZM112.574 47.3171H113.196L111.21 51.5439H110.588L111.538 49.5239L110.454 47.3171H111.089L111.843 48.8913L112.574 47.3171ZM115.369 48.9797H115.126V47.395H115.517L115.92 48.6614L116.31 47.395H116.693V48.9797H116.449V47.6501L116.041 48.9797H115.801L115.369 47.6277L115.369 48.9797ZM114.422 48.9797H114.156V47.6199H113.637V47.3951H114.946V47.6199H114.422L114.422 48.9797Z" fill="#1D2329"/>
</svg>
