<svg width="138" height="22" viewBox="0 0 138 22" fill="none" xmlns="http://www.w3.org/2000/svg">
<g clip-path="url(#clip0_1_775)">
<path d="M29.6726 5.00172C28.5581 5.00172 28.2358 5.48322 28.2358 6.54522V8.30697H31.2088L30.9108 11.1532H28.237V19.791H24.6692V11.1532H22.2656V8.30697H24.6692V6.5936C24.6692 3.7226 25.8577 2.2061 29.1737 2.2061C29.8686 2.20451 30.5629 2.24471 31.2527 2.32647V5.0051L29.6726 5.00172Z" fill="#4267B2"/>
<path d="M31.456 13.6865C31.456 10.478 33.0164 8.06152 36.2862 8.06152C38.0695 8.06152 39.1587 8.95477 39.6796 10.064V8.30677H43.0973V19.7908H39.6796V18.0538C39.1841 19.1641 38.0695 20.0326 36.2862 20.0326C33.0164 20.0326 31.456 17.6195 31.456 14.4076V13.6865ZM35.0226 14.4594C35.0226 16.1716 35.666 17.3056 37.3257 17.3056C38.7879 17.3056 39.5306 16.2684 39.5306 14.6281V13.475C39.5306 11.8348 38.7879 10.7975 37.3257 10.7975C35.666 10.7975 35.0226 11.9315 35.0226 13.6438V14.4594Z" fill="#4267B2"/>
<path d="M50.5285 8.06494C51.9145 8.06494 53.2278 8.35519 53.9462 8.83669L53.1539 11.2982C52.4107 10.9535 51.5988 10.7722 50.7757 10.7672C48.8434 10.7672 48.0037 11.8528 48.0037 13.7113V14.3863C48.0037 16.2448 48.8457 17.3304 50.7757 17.3304C51.5988 17.3254 52.4107 17.1441 53.1539 16.7994L53.9462 19.2598C53.2278 19.7424 51.9157 20.0327 50.5285 20.0327C46.3417 20.0327 44.4348 17.8367 44.4348 14.3143V13.7833C44.4348 10.2609 46.3417 8.06494 50.5285 8.06494Z" fill="#4267B2"/>
<path d="M54.4163 14.4877V13.4752C54.4163 10.2183 56.3232 8.0752 60.2132 8.0752C63.8792 8.0752 65.4893 10.2464 65.4893 13.4313V15.2651H57.9817C58.0568 16.8333 58.7752 17.5331 60.7538 17.5331C62.0924 17.5331 63.5038 17.2676 64.5445 16.8333L65.197 19.2127C64.2557 19.6964 62.3234 20.0576 60.6152 20.0576C56.1002 20.0564 54.4163 17.8627 54.4163 14.4877ZM57.9829 12.9914H62.2934V12.7023C62.2934 11.4479 61.7736 10.4523 60.2144 10.4523C58.6031 10.4534 57.9829 11.4434 57.9829 12.9869V12.9914Z" fill="#4267B2"/>
<path d="M78.7106 14.4111C78.7106 17.6196 77.1259 20.0361 73.8596 20.0361C72.0763 20.0361 70.8381 19.1676 70.3426 18.0572V19.7942H66.9746V2.5401L70.5413 2.2251V9.8976C71.061 8.8851 72.201 8.06385 73.8607 8.06385C77.1306 8.06385 78.7118 10.477 78.7118 13.6888L78.7106 14.4111ZM75.144 13.6146C75.144 11.998 74.5006 10.792 72.7912 10.792C71.329 10.792 70.5366 11.8045 70.5366 13.4458V14.6518C70.5366 16.2921 71.329 17.3057 72.7912 17.3057C74.5006 17.3057 75.144 16.0997 75.144 14.4831V13.6146Z" fill="#4267B2"/>
<path d="M79.9037 14.3379V13.7597C79.9037 10.4533 81.836 8.06494 85.7746 8.06494C89.7131 8.06494 91.6466 10.4533 91.6466 13.7597V14.3379C91.6466 17.6432 89.7143 20.0327 85.7757 20.0327C81.8372 20.0327 79.9037 17.6432 79.9037 14.3379ZM88.0788 13.5178C88.0788 11.9979 87.4343 10.7919 85.7688 10.7919C84.1033 10.7919 83.4646 11.9979 83.4646 13.5178V14.5798C83.4646 16.0997 84.1091 17.3057 85.7688 17.3057C87.4285 17.3057 88.0788 16.0997 88.0788 14.5798V13.5178Z" fill="#4267B2"/>
<path d="M92.8328 14.3379V13.7597C92.8328 10.4533 94.7651 8.06494 98.7036 8.06494C102.642 8.06494 104.575 10.4533 104.575 13.7597V14.3379C104.575 17.6432 102.642 20.0327 98.7036 20.0327C94.7651 20.0327 92.8328 17.6432 92.8328 14.3379ZM101.008 13.5178C101.008 11.9979 100.363 10.7919 98.7036 10.7919C97.0439 10.7919 96.4006 11.9979 96.4006 13.5178V14.5798C96.4006 16.0997 97.0439 17.3057 98.7036 17.3057C100.363 17.3057 101.008 16.0997 101.008 14.5798V13.5178Z" fill="#4267B2"/>
<path d="M109.479 13.7833L112.996 8.30685H116.785L113.095 13.9768L116.934 19.7908H113.145L109.479 14.1658V19.7908H105.911V2.5401L109.479 2.2251V13.7833Z" fill="#4267B2"/>
</g>
<defs>
<clipPath id="clip0_1_775">
<rect width="95" height="18" fill="white" transform="translate(22 2)"/>
</clipPath>
</defs>
</svg>
