<svg width="138" height="20" viewBox="0 0 138 20" fill="none" xmlns="http://www.w3.org/2000/svg">
<g clip-path="url(#clip0_1_744)">
<path d="M5.91802 7.05462H4.78141C4.3907 7.05462 4.17758 6.90917 4.17758 6.50917C4.17758 6.14553 4.3907 5.96371 4.78141 5.96371H5.91802V4.94554C5.91802 3.16372 6.806 2.25462 8.54643 2.25462C9.2213 2.25462 9.82512 2.40008 10.3224 2.65462C10.9262 3.05462 11.2104 3.60008 11.2104 4.25462C11.2104 4.72735 11.0683 4.90917 10.7131 4.90917C10.4645 4.90917 10.2514 4.76371 10.1803 4.50917C10.0382 4.03644 9.89616 3.74553 9.7896 3.63644C9.57649 3.3819 9.15026 3.23644 8.54643 3.23644C7.44534 3.23644 6.98359 3.7819 6.98359 4.83644V5.85462H9.0437C9.50545 5.85462 9.71857 6.00008 9.71857 6.40008C9.71857 6.76371 9.46993 6.94553 9.0437 6.94553H6.98359V13.6728C6.98359 14.0728 6.84152 14.291 6.48633 14.291C6.13113 14.291 5.98906 14.0728 5.98906 13.6728L5.91802 7.05462ZM15.1175 13.2001V7.09099H13.5901C13.1639 7.09099 12.9508 6.94553 12.9508 6.54553C12.9508 6.1819 13.1639 6.00008 13.5901 6.00008H15.6147C15.9699 6.00008 16.1475 6.29099 16.1475 6.90917C16.7869 6.21826 17.4262 5.85462 18.1721 5.85462C18.7759 5.85462 19.2022 6.00008 19.5574 6.40008C19.9126 6.80008 20.0546 7.27281 20.0546 7.85462C20.0546 8.25462 19.9126 8.47281 19.5574 8.47281C19.3442 8.47281 19.2022 8.32735 19.0956 8.07281C18.9535 7.56371 18.847 7.30917 18.847 7.27281C18.7049 7.01826 18.3852 6.87281 18.0656 6.87281C17.6748 6.87281 17.2841 7.01826 16.9645 7.34553C16.7514 7.49099 16.4672 7.81826 16.112 8.29099V13.2001H18.03C18.4918 13.2001 18.6694 13.3455 18.6694 13.7092C18.6694 14.0728 18.4563 14.2546 18.03 14.2546H13.5901C13.1284 14.2546 12.9508 14.1092 12.9508 13.7092C12.9508 13.3455 13.1639 13.1637 13.5901 13.1637H15.153L15.1175 13.2001ZM22.8251 10.291V11.4546C22.8251 12.7274 23.6776 13.3092 25.3825 13.3092C26.0218 13.3092 26.5191 13.2728 26.9098 13.091C27.1229 13.0546 27.4426 12.8364 27.9399 12.4728C28.224 12.1819 28.4727 12.0364 28.5792 12.0364C28.8634 12.0364 29.041 12.1819 29.041 12.4728C29.041 12.7637 28.8279 13.1274 28.4016 13.491C27.7268 14.0364 26.6612 14.3637 25.347 14.3637C22.9672 14.3637 21.7951 13.4183 21.7951 11.4183V8.54553C21.7951 7.89099 22.0437 7.27281 22.541 6.83644C23.1803 6.1819 24.1749 5.89099 25.4535 5.89099C27.7623 5.89099 28.8989 7.09099 28.8989 9.49099C28.8989 10.1092 28.6503 10.3637 28.2596 10.3637L22.8251 10.291ZM22.8251 9.23644H27.9044C27.9044 7.6728 27.0519 6.87281 25.347 6.87281C24.7076 6.87281 24.1749 7.01826 23.6065 7.34553C23.1093 7.74553 22.8251 8.14553 22.8251 8.65462V9.23644ZM31.7404 10.291V11.4546C31.7404 12.7274 32.5929 13.3092 34.2978 13.3092C34.9371 13.3092 35.4344 13.2728 35.8251 13.091C36.0382 13.0546 36.3579 12.8364 36.8552 12.4728C37.1393 12.1819 37.388 12.0364 37.4945 12.0364C37.7787 12.0364 37.9563 12.1819 37.9563 12.4728C37.9563 12.7637 37.7432 13.1274 37.3169 13.491C36.6421 14.0364 35.5765 14.3637 34.2623 14.3637C31.8825 14.3637 30.7104 13.4183 30.7104 11.4183V8.54553C30.7104 7.89099 30.959 7.27281 31.4563 6.83644C32.0956 6.1819 33.0902 5.89099 34.3688 5.89099C36.6776 5.89099 37.8142 7.09099 37.8142 9.49099C37.8142 10.1092 37.5656 10.3637 37.1749 10.3637L31.7404 10.291ZM31.7404 9.23644H36.8197C36.8197 7.6728 35.9672 6.87281 34.2623 6.87281C33.6229 6.87281 33.0902 7.01826 32.5218 7.34553C31.9891 7.74553 31.7404 8.14553 31.7404 8.65462V9.23644ZM39.6967 11.0183V6.47281C39.6967 4.03644 40.9399 2.8728 43.3907 2.8728C44.3852 2.8728 45.1667 3.12735 45.806 3.52735C46.4809 4.07281 46.8361 4.83644 46.8361 5.81826C46.8361 6.29099 46.694 6.47281 46.3033 6.47281C46.0546 6.47281 45.8415 6.25462 45.7705 5.81826C45.735 5.45462 45.5574 5.12735 45.3798 4.80008C45.0956 4.1819 44.3852 3.92735 43.3197 3.92735C42.4317 3.92735 41.7568 4.1819 41.3306 4.61826C40.9044 5.05462 40.7978 5.74553 40.7978 6.69099V10.4728C40.7978 11.491 41.0109 12.1819 41.4016 12.5819C41.8634 13.0546 42.5027 13.3455 43.3907 13.3455C44.7759 13.3455 45.5574 12.8364 45.7705 11.891C45.877 11.491 45.877 11.3455 45.877 11.2728C45.9836 11.0546 46.1257 10.9819 46.3388 10.9819C46.694 10.9819 46.8716 11.2364 46.8716 11.6364C46.8716 12.5455 46.4809 13.2364 45.7705 13.8183C45.1667 14.2183 44.4207 14.4364 43.4617 14.4364C42.3251 14.4364 41.4371 14.1819 40.7978 13.6364C40.0519 13.0183 39.6967 12.1092 39.6967 11.0183ZM48.4699 11.6728V8.65462C48.4699 6.80008 49.6421 5.89099 52.0218 5.89099C54.4016 5.89099 55.5738 6.80008 55.5738 8.65462V11.6728C55.5738 13.5274 54.4016 14.4364 52.0574 14.4364C49.6776 14.4001 48.4699 13.491 48.4699 11.6728ZM54.5437 11.6728V8.65462C54.5437 7.49099 53.6912 6.94553 51.9863 6.94553C50.3524 6.94553 49.4645 7.56371 49.4645 8.65462V11.6728C49.4645 12.8364 50.3169 13.3819 52.0218 13.3819C53.7623 13.3455 54.5437 12.7637 54.5437 11.6728ZM63.388 13.3819C62.8907 13.7819 62.5 14.0001 62.1093 14.1455C61.7186 14.291 61.2213 14.4001 60.6885 14.4001C59.765 14.4001 58.9481 14.1819 58.3798 13.7819C57.7049 13.3092 57.3497 12.6183 57.3497 11.6728V8.54553C57.3497 7.63644 57.7049 6.94553 58.3442 6.47281C58.877 6.07281 59.694 5.85462 60.582 5.85462C61.1858 5.85462 61.683 5.89099 62.0738 6.0728C62.4645 6.21826 62.9262 6.47281 63.3524 6.87281V3.09099C63.3524 2.5819 63.4945 2.32735 63.8497 2.32735C64.2049 2.32735 64.3825 2.5819 64.3825 3.09099V13.8546C64.3825 14.2546 64.2404 14.4001 63.8852 14.4001C63.6721 14.4001 63.53 14.291 63.4945 14.0364C63.4235 13.891 63.388 13.6728 63.388 13.3819ZM63.3169 12.1819V7.92735C62.8197 7.52735 62.4289 7.27281 62.0738 7.16371C61.612 7.01826 61.1858 6.90917 60.6885 6.90917C60.0492 6.90917 59.5164 7.01826 59.1257 7.30917C58.6284 7.60008 58.3442 8.10917 58.3442 8.69099V11.6364C58.3442 12.2546 58.5929 12.691 59.1257 13.0546C59.5874 13.3092 60.0492 13.4546 60.7596 13.4546C61.2923 13.4546 61.7896 13.3455 62.1803 13.2001C62.5355 12.8728 62.9262 12.5819 63.3169 12.1819ZM67.2596 10.291V11.4546C67.2596 12.7274 68.112 13.3092 69.8169 13.3092C70.4563 13.3092 70.9535 13.2728 71.3443 13.091C71.5574 13.0546 71.877 12.8364 72.3743 12.4728C72.6585 12.1819 72.9071 12.0364 73.0136 12.0364C73.2978 12.0364 73.4754 12.1819 73.4754 12.4728C73.4754 12.7637 73.2623 13.1274 72.8361 13.491C72.1612 14.0364 71.0956 14.3637 69.7814 14.3637C67.4016 14.3637 66.2295 13.4183 66.2295 11.4183V8.54553C66.2295 7.89099 66.4781 7.27281 66.9754 6.83644C67.6147 6.1819 68.6093 5.89099 69.888 5.89099C72.1967 5.89099 73.3333 7.09099 73.3333 9.49099C73.3333 10.1092 73.0847 10.3637 72.694 10.3637L67.2596 10.291ZM67.2596 9.23644H72.3388C72.3388 7.6728 71.4863 6.87281 69.7814 6.87281C69.1421 6.87281 68.6093 7.01826 68.041 7.34553C67.5082 7.74553 67.2596 8.14553 67.2596 8.65462V9.23644ZM75.2158 11.0183V6.47281C75.2158 4.03644 76.459 2.8728 78.9098 2.8728C79.9044 2.8728 80.6858 3.12735 81.3251 3.52735C82 4.07281 82.3552 4.83644 82.3552 5.81826C82.3552 6.29099 82.2131 6.47281 81.8224 6.47281C81.5738 6.47281 81.3606 6.25462 81.2896 5.81826C81.2541 5.45462 81.0765 5.12735 80.8989 4.80008C80.6147 4.1819 79.9044 3.92735 78.8388 3.92735C77.9508 3.92735 77.2759 4.1819 76.8497 4.61826C76.459 5.09099 76.3169 5.74553 76.3169 6.69099V10.4728C76.3169 11.491 76.53 12.1819 76.9208 12.5819C77.347 13.0546 78.0218 13.3455 78.9098 13.3455C80.2951 13.3455 81.0765 12.8364 81.2896 11.891C81.3962 11.491 81.3962 11.3455 81.3962 11.2728C81.5027 11.0546 81.6448 10.9819 81.8224 10.9819C82.1776 10.9819 82.3552 11.2364 82.3552 11.6364C82.3552 12.5455 81.9645 13.2364 81.2541 13.8183C80.6503 14.2183 79.9044 14.4364 78.9453 14.4364C77.8087 14.4364 76.9208 14.1819 76.2814 13.6364C75.571 13.0183 75.2158 12.1092 75.2158 11.0183ZM89.7076 13.3819C89.2104 13.7819 88.8197 14.0364 88.5355 14.1455C88.1448 14.291 87.6831 14.4001 87.1503 14.4001C86.2978 14.4001 85.5874 14.2546 85.0191 13.8546C84.3798 13.3819 84.0956 12.8001 84.0956 11.9274C84.0956 11.0546 84.4508 10.4001 85.0901 9.89099C85.6229 9.45462 86.3688 9.23644 87.2568 9.23644C87.9317 9.23644 88.7486 9.3819 89.6721 9.74553V8.43644C89.6721 7.81826 89.388 7.3819 88.8197 7.12735C88.4289 6.9819 87.9317 6.87281 87.3989 6.87281C86.0492 6.87281 85.3743 7.27281 85.2322 8.03644C85.1967 8.40008 85.1257 8.5819 85.1257 8.5819C85.0191 8.72735 84.877 8.83644 84.6639 8.83644C84.2732 8.83644 84.1311 8.61826 84.1311 8.21826C84.1311 7.67281 84.3442 7.16371 84.7705 6.69099C85.2677 6.0728 86.1912 5.81826 87.541 5.81826C88.571 5.81826 89.3524 5.96371 89.8497 6.36371C90.4535 6.83644 90.7377 7.52735 90.7377 8.5819V12.3274C90.7377 12.7637 90.8442 13.091 90.9863 13.2001C90.9863 13.2001 91.1994 13.3092 91.4836 13.4546C91.6257 13.5637 91.7322 13.7092 91.7322 13.9637C91.7322 14.2546 91.5901 14.4364 91.2705 14.4364C91.1639 14.4364 91.0218 14.4364 90.8087 14.3274C90.418 14.1819 90.1694 14.0728 90.1339 14.0728C89.8852 13.891 89.7787 13.6728 89.7076 13.3819ZM89.6721 12.291V10.7274C88.8907 10.4728 88.1093 10.3274 87.4344 10.3274C85.9071 10.3274 85.1612 10.8364 85.1612 11.8546C85.1612 12.4001 85.4098 12.8001 85.8361 13.0183C86.2268 13.2364 86.6885 13.3092 87.2213 13.3092C87.7186 13.3092 88.1448 13.2001 88.5355 13.0183C88.8197 12.9455 89.1749 12.691 89.6721 12.291ZM93.6503 6.72735C93.8989 6.43644 94.1475 6.1819 94.2896 6.0728C94.5382 5.92735 94.7869 5.81826 95.1776 5.81826C95.7104 5.81826 96.2076 6.10917 96.6694 6.72735C96.9535 6.36371 97.2022 6.10917 97.4508 6.03644C97.6994 5.89099 98.0546 5.81826 98.4453 5.81826C99.6885 5.81826 100.257 6.43644 100.257 7.67281V13.6364C100.257 14.1455 100.115 14.4001 99.724 14.4001C99.3688 14.4001 99.2268 14.1455 99.2268 13.6364V8.03644C99.2268 7.27281 98.9426 6.87281 98.3388 6.87281C97.877 6.87281 97.4508 7.16371 97.0601 7.74553V13.6364C97.0601 14.1455 96.918 14.4001 96.5628 14.4001C96.2076 14.4001 96.0656 14.1455 96.0656 13.6364V8.1819C96.0656 7.30917 95.7104 6.90917 95.071 6.90917C94.6093 6.90917 94.2186 7.20008 93.8279 7.7819V13.7092C93.8279 14.2183 93.6858 14.4728 93.2951 14.4728C92.9399 14.4728 92.7978 14.2183 92.7978 13.7092V6.43644C92.7978 6.0728 92.9399 5.89099 93.2596 5.89099C93.4016 5.89099 93.5437 6.00008 93.6503 6.1819C93.6147 6.32735 93.6503 6.5819 93.6503 6.72735ZM102.885 6.72735C103.667 6.10917 104.626 5.85462 105.656 5.85462C107.822 5.85462 108.852 6.80008 108.852 8.61826V11.6364C108.852 12.5092 108.568 13.2001 107.964 13.7092C107.432 14.1819 106.686 14.3637 105.727 14.3637C104.626 14.3637 103.702 14.0728 102.85 13.4546V16.9455C102.85 17.491 102.708 17.7455 102.352 17.7455C101.997 17.7455 101.855 17.491 101.855 16.9455V6.65462C101.855 6.10917 101.997 5.85462 102.281 5.85462C102.423 5.85462 102.566 5.96371 102.672 6.14553C102.743 6.36371 102.779 6.5819 102.885 6.72735ZM102.885 12.3274C103.631 12.9819 104.519 13.3455 105.549 13.3455C106.189 13.3455 106.721 13.2364 107.112 12.9455C107.609 12.6546 107.787 12.1819 107.787 11.6364V8.61826C107.787 7.96371 107.538 7.56371 107.005 7.23644C106.615 7.01826 106.082 6.94553 105.443 6.94553C104.839 6.94553 104.342 7.05462 104.022 7.20008C103.667 7.34553 103.347 7.6728 102.85 8.14553V12.3274H102.885ZM112.369 9.3819C112.369 7.05462 113.15 4.98189 114.678 3.23644C115.21 2.58189 115.708 2.21826 116.027 2.21826C116.134 2.21826 116.276 2.21826 116.311 2.32735C116.418 2.43644 116.454 2.47281 116.454 2.61826C116.454 2.76371 116.24 3.05463 115.85 3.49099C114.216 5.09099 113.434 7.09099 113.434 9.45462C113.434 12.0728 114.287 14.2546 115.956 15.8546C116.311 16.1455 116.454 16.4728 116.454 16.6546C116.454 16.7637 116.418 16.9092 116.311 16.9455C116.205 17.0546 116.098 17.091 116.027 17.091C115.637 17.091 115.104 16.6183 114.393 15.6728C113.008 14.0001 112.369 11.9274 112.369 9.3819ZM133.822 10.0001C133.822 12.3274 133.041 14.4001 131.514 16.1455C130.981 16.8001 130.484 17.1637 130.164 17.1637C130.057 17.1637 129.915 17.1637 129.88 17.0546C129.773 16.9455 129.738 16.8364 129.738 16.7637C129.738 16.6183 129.951 16.291 130.342 15.9637C131.975 14.3637 132.757 12.3637 132.757 10.0001C132.757 7.3819 131.904 5.20007 130.235 3.60007C129.88 3.30917 129.738 2.9819 129.738 2.80008C129.738 2.69099 129.773 2.54553 129.88 2.50916C129.986 2.40007 130.093 2.36371 130.164 2.36371C130.555 2.36371 131.087 2.83644 131.798 3.78189C133.148 5.41826 133.822 7.52735 133.822 10.0001ZM127.962 16.6546H118.158C117.874 16.6546 117.555 16.4001 117.555 16.0364C117.555 15.6728 117.803 15.4183 118.158 15.4183H127.962C128.246 15.4183 128.566 15.6728 128.566 16.0364C128.53 16.4001 128.352 16.6546 127.962 16.6546ZM121 3.49099C121 3.49099 121.852 4.10917 121.852 5.09099C121.852 6.90917 119.437 8.94553 119.437 10.8364C119.437 12.9092 120.964 14.2183 122.385 14.6183C122.598 14.6546 122.669 14.4001 122.421 14.3637C121.817 14.2183 121.142 13.4183 121.142 12.1455C121.142 10.9819 122.243 10.5455 122.669 9.96371C123.131 9.34553 123.025 8.65462 122.776 8.43644C122.527 8.21826 122.669 7.92735 123.167 8.29099C123.628 8.65462 124.055 9.23644 123.913 9.85462C123.699 10.6183 123.948 11.0546 124.374 11.1274C124.765 11.1637 125.227 10.9819 125.156 10.6183C125.12 10.2546 124.907 9.85462 125.014 9.85462C125.298 9.85462 125.902 10.5455 125.902 11.6728C125.902 12.8001 125.014 13.6001 124.729 13.891C124.587 14.0364 124.765 14.291 125.014 14.1819C125.12 14.1455 125.369 13.9637 125.511 13.891C126.186 13.3819 127.322 12.3274 127.322 10.3637C127.322 8.29099 126.576 7.3819 125.795 6.61826C125.049 5.85462 124.872 6.07281 125.049 6.40008C125.689 7.56371 125.298 7.92735 124.836 7.92735C124.303 7.92735 124.232 6.61826 124.055 5.63644C123.557 3.41826 121.639 3.05462 121.284 3.05462C120.893 3.09098 120.538 3.27281 121 3.49099Z" fill="#006400"/>
</g>
<defs>
<clipPath id="clip0_1_744">
<rect width="130" height="16" fill="white" transform="translate(4 2)"/>
</clipPath>
</defs>
</svg>
