<svg width="138" height="46" viewBox="0 0 138 46" fill="none" xmlns="http://www.w3.org/2000/svg">
<path d="M56.6311 24.3614L55.2768 20.1852C55.2775 20.1871 55.2777 20.189 55.2783 20.1909C55.2776 20.1887 55.2772 20.1865 55.2766 20.1844L55.2766 20.184V20.1838L52.588 11.8964C52.441 11.4598 52.0363 11.1668 51.5724 11.1704C51.1071 11.1728 50.7135 11.4602 50.5696 11.9028L48.0177 19.7692H39.9656L37.4089 11.9023C37.2651 11.4602 36.8715 11.1728 36.4063 11.1704H36.4007C35.9426 11.1704 35.5371 11.4617 35.3885 11.9032L32.7074 20.1832L32.707 20.1842V20.1844C32.7063 20.1865 32.706 20.1886 32.7053 20.1908C32.7059 20.1889 32.7062 20.1869 32.7068 20.185L31.3475 24.3615C31.2475 24.6677 31.2471 24.9977 31.3463 25.3042C31.4455 25.6106 31.6393 25.8776 31.8998 26.0667L43.6363 34.6049C43.638 34.6061 43.64 34.6069 43.6417 34.6082C43.6467 34.6118 43.6516 34.6155 43.6567 34.6188C43.6519 34.6156 43.6474 34.6121 43.6427 34.6088L43.6426 34.6087C43.6433 34.6093 43.6442 34.6097 43.6451 34.6102L43.6471 34.6114L43.6474 34.6116C43.6655 34.6243 43.6844 34.6358 43.7039 34.6464C43.7066 34.6479 43.709 34.6498 43.7117 34.6512L43.7118 34.6513C43.7135 34.6521 43.715 34.6532 43.7166 34.654C43.7179 34.6546 43.7193 34.655 43.7205 34.6556C43.7214 34.656 43.7223 34.6563 43.7232 34.6567C43.7254 34.6578 43.7278 34.6584 43.73 34.6596C43.7402 34.6644 43.7509 34.6684 43.7614 34.6727C43.7713 34.6768 43.7808 34.6815 43.7909 34.685L43.7921 34.6856C43.7938 34.6862 43.7953 34.687 43.797 34.6876C43.7991 34.6883 43.8011 34.6892 43.8032 34.6898L43.8057 34.6904C43.8083 34.6913 43.8112 34.6916 43.8138 34.6924L43.817 34.6931C43.8311 34.6974 43.8457 34.7005 43.8603 34.7037C43.866 34.705 43.8714 34.7068 43.8772 34.7079L43.8797 34.7085C43.8816 34.7089 43.8833 34.7095 43.8853 34.7098C43.8883 34.7104 43.8913 34.7113 43.8945 34.7118C43.897 34.7122 43.8995 34.712 43.902 34.7124L43.9033 34.7125H43.9036C43.9313 34.7164 43.9594 34.7192 43.988 34.7192H43.989C44.0176 34.7192 44.0457 34.7164 44.0735 34.7125H44.0738L44.0751 34.7124C44.0776 34.712 44.0802 34.7122 44.0827 34.7118C44.0858 34.7113 44.0888 34.7104 44.092 34.7098C44.0939 34.7095 44.0956 34.7089 44.0975 34.7085L44.0999 34.7079C44.1057 34.7068 44.1114 34.7049 44.1172 34.7037C44.1315 34.7005 44.1459 34.6974 44.16 34.6932L44.1629 34.6925C44.1657 34.6917 44.1685 34.6913 44.1713 34.6905C44.1721 34.6902 44.173 34.6901 44.1739 34.6899C44.176 34.6892 44.1781 34.6883 44.1802 34.6876C44.1819 34.687 44.1834 34.6862 44.185 34.6856L44.1863 34.685C44.197 34.6813 44.207 34.6763 44.2175 34.672C44.2271 34.668 44.237 34.6644 44.2465 34.6599C44.2488 34.6587 44.2513 34.6581 44.2536 34.6569L44.2564 34.6557C44.2577 34.6551 44.259 34.6548 44.2603 34.6541C44.262 34.6532 44.2637 34.6521 44.2653 34.6513L44.2654 34.6512C44.2682 34.6498 44.2707 34.6478 44.2734 34.6463C44.2928 34.6357 44.3116 34.6243 44.3296 34.6117C44.3311 34.6107 44.3327 34.61 44.3342 34.6089L44.3354 34.6082C44.3371 34.6069 44.3392 34.6061 44.3409 34.6048L56.079 26.0664C56.3394 25.8773 56.5331 25.6103 56.6323 25.3039C56.7315 24.9975 56.7311 24.6675 56.6311 24.3614ZM51.5797 12.6728L53.8818 19.7692H49.2777L51.5797 12.6728ZM53.4787 20.9691L52.5393 22.1742L45.6111 31.0625L48.8884 20.9691H53.4787V20.9691ZM43.4187 34.3049C43.4187 34.3048 43.4187 34.3048 43.4187 34.3049C43.4193 34.3067 43.4202 34.3083 43.4208 34.3102C43.4202 34.3083 43.4193 34.3067 43.4187 34.3049ZM42.3676 31.0631L34.5043 20.9691H39.095L42.3676 31.0631ZM36.399 12.6728L38.7053 19.7692H34.1012L36.399 12.6728ZM32.6044 25.096C32.549 25.0556 32.5078 24.9987 32.4867 24.9334C32.4656 24.8681 32.4658 24.7978 32.4871 24.7325L33.4975 21.6278L40.9012 31.1318L32.6044 25.096ZM43.6156 34.589C43.6133 34.5871 43.6111 34.5851 43.6088 34.5832L43.6074 34.5819C43.6029 34.5781 43.5985 34.5743 43.5941 34.5704C43.5855 34.563 43.5772 34.5553 43.5691 34.5474L43.5712 34.5491L43.574 34.5514C43.5912 34.5679 43.6093 34.5834 43.6282 34.5977L43.6288 34.5982C43.6297 34.5989 43.6304 34.5997 43.6313 34.6004C43.6261 34.5967 43.6207 34.593 43.6156 34.589ZM43.9889 32.1775L42.0631 26.2379L40.3549 20.9691H47.6281L43.9889 32.1775ZM44.383 34.5703C44.3785 34.5742 44.3741 34.5781 44.3696 34.5819L44.368 34.5833C44.3657 34.5852 44.3635 34.5872 44.3612 34.5891C44.3563 34.5931 44.3509 34.5967 44.3457 34.6005C44.3466 34.5998 44.3474 34.5989 44.3483 34.5983L44.3488 34.5979C44.3677 34.5836 44.3857 34.5683 44.4027 34.5518C44.4034 34.5511 44.4042 34.5506 44.4049 34.55C44.4058 34.5492 44.4068 34.5485 44.4076 34.5477C44.3996 34.5555 44.3914 34.563 44.383 34.5703ZM55.3744 25.0958L47.0789 31.1299L54.4849 21.6286L55.4912 24.7319C55.5127 24.7972 55.5129 24.8675 55.4919 24.9329C55.471 24.9983 55.4298 25.0553 55.3744 25.0958Z" fill="#231F20"/>
<path d="M85.0107 16.8911H83.3748L83.3823 29.1004H90.0083V27.5902H85.0182L85.0107 16.8911Z" fill="#231F20"/>
<path d="M96.3136 26.9578C95.9009 27.3861 95.218 27.8144 94.2875 27.8144C93.0419 27.8144 92.5391 27.1983 92.5391 26.3943C92.5391 25.1847 93.3796 24.6061 95.1655 24.6061C95.5032 24.6061 96.0435 24.6437 96.3211 24.6963V26.9578H96.3136ZM94.6177 19.5571C93.297 19.5571 92.0814 20.023 91.1359 20.8119L91.7137 21.8187C92.3815 21.428 93.1995 21.0373 94.3776 21.0373C95.7208 21.0373 96.3136 21.7285 96.3136 22.8856V23.4791C96.051 23.4265 95.5107 23.389 95.1805 23.389C92.314 23.389 90.8582 24.3958 90.8582 26.4995C90.8582 28.3854 92.0138 29.3321 93.7623 29.3321C94.9404 29.3321 96.0735 28.7911 96.4637 27.912L96.7639 29.1067H97.9195V22.8555C97.912 20.8795 97.0565 19.5571 94.6177 19.5571Z" fill="#231F20"/>
<path d="M103.198 27.8707C102.582 27.8707 102.042 27.7955 101.637 27.6077V21.9651C102.192 21.4993 102.883 21.1612 103.761 21.1612C105.344 21.1612 105.952 22.2807 105.952 24.0914C105.952 26.661 104.969 27.8707 103.198 27.8707ZM103.888 19.5608C102.425 19.5608 101.637 20.5601 101.637 20.5601V18.9823L101.629 16.8936H100.031L100.039 28.8023C100.842 29.1404 101.937 29.3207 103.13 29.3207C106.184 29.3207 107.655 27.3673 107.655 23.9937C107.648 21.3265 106.289 19.5608 103.888 19.5608Z" fill="#231F20"/>
<path d="M67.1994 18.2157C68.6477 18.2157 69.5857 18.6966 70.1935 19.185L70.8989 17.9603C69.9459 17.1188 68.6552 16.668 67.2745 16.668C63.7926 16.668 61.3539 18.7943 61.3539 23.0844C61.3539 27.5775 63.9877 29.3281 66.9968 29.3281C68.5051 29.3281 69.7883 28.975 70.6287 28.6218L70.5912 23.8208V22.3106H66.1264V23.8208H68.9778L69.0154 27.4648C68.6402 27.6526 67.9948 27.8029 67.1169 27.8029C64.7006 27.8029 63.0798 26.2776 63.0798 23.0694C63.0723 19.8011 64.7456 18.2157 67.1994 18.2157Z" fill="#231F20"/>
<path d="M78.7201 16.8896H77.1217L77.1292 18.9408V26.026C77.1292 28.002 77.9847 29.3244 80.4235 29.3244C80.7611 29.3244 81.0913 29.2943 81.4065 29.2342V27.7991C81.1739 27.8367 80.9262 27.8517 80.6636 27.8517C79.3204 27.8517 78.7276 27.1605 78.7276 26.0034V21.1197H81.4065V19.7823H78.7276L78.7201 16.8896Z" fill="#231F20"/>
<path d="M73.0569 29.1003H74.6552V19.7837H73.0569V29.1003Z" fill="#231F20"/>
<path d="M73.0569 18.4988H74.6552V16.8984H73.0569V18.4988Z" fill="#231F20"/>
</svg>
