<svg width="138" height="36" viewBox="0 0 138 36" fill="none" xmlns="http://www.w3.org/2000/svg">
<g clip-path="url(#clip0_1_755)">
<path d="M62.5974 18.8719C62.5974 22.8972 59.4388 25.8634 55.5625 25.8634C51.6862 25.8634 48.5276 22.8972 48.5276 18.8719C48.5276 14.8182 51.6862 11.8804 55.5625 11.8804C59.4388 11.8804 62.5974 14.8182 62.5974 18.8719ZM59.5179 18.8719C59.5179 16.3565 57.6872 14.6354 55.5625 14.6354C53.4378 14.6354 51.6071 16.3565 51.6071 18.8719C51.6071 21.3621 53.4378 23.1084 55.5625 23.1084C57.6872 23.1084 59.5179 21.359 59.5179 18.8719Z" fill="#EA4335"/>
<path d="M77.7739 18.8719C77.7739 22.8972 74.6153 25.8634 70.739 25.8634C66.8626 25.8634 63.704 22.8972 63.704 18.8719C63.704 14.8213 66.8626 11.8804 70.739 11.8804C74.6153 11.8804 77.7739 14.8182 77.7739 18.8719ZM74.6943 18.8719C74.6943 16.3565 72.8637 14.6354 70.739 14.6354C68.6143 14.6354 66.7836 16.3565 66.7836 18.8719C66.7836 21.3621 68.6143 23.1084 70.739 23.1084C72.8637 23.1084 74.6943 21.359 74.6943 18.8719Z" fill="#FBBC05"/>
<path d="M92.318 12.3028V24.8547C92.318 30.018 89.2637 32.1268 85.653 32.1268C82.2541 32.1268 80.2084 29.8604 79.4369 28.0069L82.1181 26.8942C82.5955 28.0321 83.7654 29.3749 85.6498 29.3749C87.9611 29.3749 89.3933 27.9533 89.3933 25.2771V24.2716H89.2859C88.5966 25.1195 87.2686 25.8603 85.5929 25.8603C82.0865 25.8603 78.8741 22.8153 78.8741 18.8971C78.8741 14.9506 82.0865 11.8804 85.5929 11.8804C87.2655 11.8804 88.5934 12.6211 89.2859 13.4438H89.3933V12.3059H92.318V12.3028ZM89.6115 18.8971C89.6115 16.4353 87.9642 14.6354 85.868 14.6354C83.7433 14.6354 81.9632 16.4353 81.9632 18.8971C81.9632 21.3337 83.7433 23.1084 85.868 23.1084C87.9642 23.1084 89.6115 21.3337 89.6115 18.8971Z" fill="#4285F4"/>
<path d="M97.1397 4.9458V25.4349H94.136V4.9458H97.1397Z" fill="#34A853"/>
<path d="M108.845 21.1732L111.235 22.7619C110.463 23.8998 108.604 25.8605 105.392 25.8605C101.408 25.8605 98.4329 22.7903 98.4329 18.869C98.4329 14.7112 101.433 11.8774 105.047 11.8774C108.686 11.8774 110.467 14.7648 111.048 16.3252L111.368 17.1195L101.993 20.9904C102.711 22.3931 103.827 23.1086 105.392 23.1086C106.96 23.1086 108.048 22.3395 108.845 21.1732ZM101.487 18.6578L107.754 16.0635C107.409 15.1904 106.372 14.582 105.152 14.582C103.587 14.582 101.408 15.9595 101.487 18.6578Z" fill="#EA4335"/>
<path d="M37.1579 17.0529V14.0868H47.1838C47.2818 14.6037 47.3324 15.2152 47.3324 15.8772C47.3324 18.1026 46.7222 20.8545 44.7556 22.8151C42.8427 24.801 40.3987 25.8601 37.161 25.8601C31.16 25.8601 26.1138 20.9869 26.1138 15.004C26.1138 9.02121 31.16 4.14795 37.161 4.14795C40.4809 4.14795 42.8459 5.44664 44.6228 7.13936L42.5234 9.23241C41.2492 8.04088 39.5229 7.11414 37.1579 7.11414C32.7757 7.11414 29.3483 10.6351 29.3483 15.004C29.3483 19.3729 32.7757 22.8939 37.1579 22.8939C40.0003 22.8939 41.6191 21.756 42.6562 20.7221C43.4972 19.8836 44.0505 18.6858 44.2687 17.0498L37.1579 17.0529Z" fill="#4285F4"/>
</g>
<defs>
<clipPath id="clip0_1_755">
<rect width="86" height="29" fill="white" transform="translate(26 4)"/>
</clipPath>
</defs>
</svg>
