<svg width="138" height="67" viewBox="0 0 138 67" fill="none" xmlns="http://www.w3.org/2000/svg">
<g clip-path="url(#clip0_1_800)">
<path d="M53.4957 29.2465V41.3671H49.6149V26.132L57.6267 26.1399C61.0296 26.1399 62.1889 28.5258 62.1889 30.693V41.3671H58.3151V30.7129C58.3151 29.8051 57.8425 29.2465 56.7024 29.2465H53.4957V29.2465ZM79.884 29.0644C78.5576 29.0644 77.531 29.7424 77.1022 30.6628C76.8482 31.2153 76.7608 31.6388 76.7309 32.3154H82.7012C82.6246 30.6628 81.8708 29.0644 79.884 29.0644ZM76.7309 34.9414C76.7309 36.9149 77.9649 38.3674 80.168 38.3674C81.882 38.3674 82.7339 37.8951 83.725 36.9149L86.1219 39.1902C84.5872 40.6966 82.9768 41.6114 80.1395 41.6114C76.4245 41.6114 72.8694 39.5975 72.8694 33.728C72.8694 28.7129 75.9734 25.8738 80.0521 25.8738C84.1865 25.8738 86.575 29.1977 86.575 33.5515V34.9414H76.7309ZM69.5935 41.3481C66.432 41.3481 65.0906 39.16 65.0906 36.9989V21.9811H68.9653V26.132H71.8862V29.2465H68.9653V36.7575C68.9653 37.6425 69.3856 38.1338 70.3099 38.1338H71.8862V41.3481H69.5935ZM46.162 24.0266H42.2547V20.3364H46.162V24.0266ZM46.1719 41.5273C43.2458 41.2478 42.2505 39.4832 42.2505 37.447L42.2547 26.132H46.1719V41.5273H46.1719ZM92.7419 41.2018C89.8219 40.9218 88.8313 39.16 88.8313 37.1266V19.8112H92.7419V41.2018ZM106.413 22.3136C102.869 5.13472 69.3287 4.04719 47.7099 17.1323V18.5769C69.3067 7.54194 99.9363 7.60695 102.727 23.4295C103.661 28.6614 100.695 34.1162 95.3994 37.2515V41.3537C101.774 39.0351 108.311 31.5167 106.413 22.3136ZM67.1149 52.3701C52.1945 53.7413 36.6464 51.5881 34.4708 39.9963C33.406 34.282 36.0243 28.2244 39.4977 24.4617V22.4497C33.2448 27.9012 29.8513 34.803 31.8049 42.958C34.2985 53.4153 47.6426 59.3415 68.0102 57.3735C76.0687 56.5915 86.6161 54.0153 93.9488 50.0139V44.3293C87.2952 48.2684 76.2849 51.5259 67.1149 52.3701Z" fill="#0071C5"/>
<path d="M97.2623 20.9608C97.2623 20.7723 97.1516 20.7124 96.8985 20.7124H96.6542V21.2459C96.6897 21.2459 96.8672 21.2524 96.8985 21.2524C97.1516 21.2524 97.2623 21.1684 97.2623 20.9919V20.9608V20.9608ZM97.6434 22.2837H97.3538C97.3277 22.2837 97.3048 22.2675 97.2936 22.2457L96.8985 21.5798C96.8914 21.5663 96.8574 21.5501 96.8438 21.5501H96.6663V22.2104C96.6663 22.2457 96.642 22.2837 96.5953 22.2837H96.3333C96.3006 22.2837 96.2679 22.2457 96.2679 22.2104V20.5401C96.2679 20.4435 96.3058 20.4031 96.388 20.3906C96.4805 20.3785 96.7317 20.3701 96.8672 20.3701C97.3482 20.3701 97.6392 20.5113 97.6392 20.9608V20.9919C97.6392 21.27 97.5 21.4168 97.2842 21.4888L97.6938 22.1774C97.6964 22.1913 97.706 22.2104 97.706 22.2266C97.706 22.2536 97.6896 22.2837 97.6434 22.2837L97.6434 22.2837ZM96.9559 20.0688C96.2432 20.0688 95.6669 20.6538 95.6669 21.3583C95.6669 22.0636 96.2432 22.6394 96.9559 22.6394C97.6649 22.6394 98.2468 22.0636 98.2468 21.3583C98.2468 20.6538 97.6649 20.0688 96.9559 20.0688ZM96.9559 22.905C96.09 22.905 95.3992 22.2104 95.3992 21.3583C95.3992 20.5076 96.09 19.811 96.9559 19.811C97.8125 19.811 98.5163 20.5076 98.5163 21.3583C98.5163 22.2104 97.8125 22.905 96.9559 22.905Z" fill="#0071C5"/>
</g>
<defs>
<clipPath id="clip0_1_800">
<rect width="76" height="50" fill="white" transform="translate(31 8)"/>
</clipPath>
</defs>
</svg>
