<svg width="105" height="37" viewBox="0 0 105 37" fill="none" xmlns="http://www.w3.org/2000/svg">
<path d="M71.316 15.8202C69.9772 15.8202 69.0217 16.2801 68.5545 17.1522L68.3025 17.6227V16.0475H66.1237V25.6305H68.418V19.9325C68.418 18.5688 69.153 17.7865 70.434 17.7865C71.6572 17.7865 72.3555 18.5477 72.3555 19.8744V25.6358H74.6497V19.4568C74.6445 17.1787 73.4002 15.8202 71.316 15.8202ZM60.2017 15.8202C57.498 15.8202 55.818 17.5169 55.818 20.2549V21.6028C55.818 24.2298 57.5137 25.8631 60.2385 25.8631C62.0602 25.8631 63.3412 25.1918 64.1445 23.8069L62.7217 22.9824C62.1285 23.7805 61.1782 24.2774 60.2385 24.2774C58.8577 24.2774 58.0335 23.4211 58.0335 21.9834V21.6028H64.4332V20.0118C64.4332 17.4641 62.7742 15.8202 60.2017 15.8202ZM62.349 20.0488H58.0335V19.8215C58.0335 18.2411 58.8052 17.3742 60.2017 17.3742C61.5457 17.3742 62.349 18.2305 62.349 19.6682V20.0488ZM97.3979 14.4671V12.6329H89.4757V14.4671H92.253V23.7964H89.4757V25.6305H97.3979V23.7964H94.6207V14.4671H97.3979ZM37.3065 12.3687C33.768 12.3687 31.5683 14.5887 31.5683 18.1671V20.1017C31.5683 23.6801 33.768 25.9001 37.3065 25.9001C40.845 25.9001 43.0448 23.6801 43.0448 20.1017V18.1671C43.0448 14.5939 40.845 12.3687 37.3065 12.3687ZM40.677 20.2338C40.677 22.6071 39.4485 23.9708 37.3065 23.9708C35.1645 23.9708 33.936 22.6071 33.936 20.2338V18.0349C33.936 15.6617 35.1645 14.2979 37.3065 14.2979C39.4485 14.2979 40.677 15.6617 40.677 18.0349V20.2338ZM50.2425 15.8202C49.0403 15.8202 48.0008 16.3224 47.4548 17.1628L47.208 17.5434V16.0475H45.0293V28.9288H47.3235V24.2615L47.5703 24.6262C48.0848 25.3979 49.0928 25.8578 50.2635 25.8578C52.2375 25.8578 54.2325 24.5575 54.2325 21.6504V20.0224C54.2325 17.9345 52.9987 15.8202 50.2425 15.8202ZM51.9382 21.5394C51.9382 23.0828 51.0405 24.0448 49.602 24.0448C48.258 24.0448 47.3235 23.0299 47.3235 21.5764V20.1387C47.3235 18.6639 48.2685 17.6332 49.623 17.6332C51.051 17.6332 51.9435 18.5952 51.9435 20.1387V21.5394H51.9382ZM80.976 12.6382L76.3455 25.6358H78.6712L79.5585 22.8502H84.8767L84.8872 22.8767L85.764 25.6358H88.0897L83.4592 12.6382H80.976ZM80.136 21.0108L82.2202 14.4407L84.2835 21.0108H80.136Z" fill="black"/>
<path d="M27.0848 16.2642C27.5888 14.7102 27.4208 13.0769 26.607 11.655C25.3785 9.50904 22.9425 8.42018 20.538 8.9329C19.4565 7.71718 17.9655 7.0459 16.3328 7.0459C13.8705 7.0459 11.718 8.62633 10.9568 10.9785C9.366 11.3168 8.04826 12.2788 7.23451 13.7006C6.00601 15.8466 6.28426 18.5159 7.92751 20.3553C7.42351 21.9093 7.59151 23.5426 8.40526 24.9645C9.63376 27.1105 12.0698 28.1993 14.4743 27.6866C15.5558 28.9023 17.0468 29.5736 18.6795 29.5736C21.1418 29.5736 23.2943 27.9932 24.0555 25.6411C25.6463 25.3028 26.964 24.3408 27.7778 22.9189C29.0063 20.7729 28.728 18.1036 27.0848 16.2642ZM18.6743 28.0989C17.6873 28.0989 16.737 27.7501 15.9915 27.1211C16.023 27.0999 16.086 27.0682 16.128 27.0471L20.5853 24.4571C20.8163 24.3249 20.9528 24.0871 20.9528 23.8175V17.4958L22.8375 18.5899C22.8638 18.6058 22.8743 18.6269 22.8743 18.6428V23.8809C22.869 26.2066 20.9895 28.0989 18.6743 28.0989ZM9.6705 24.2245C9.177 23.3629 8.9985 22.3586 9.17175 21.3966C9.20325 21.4178 9.261 21.4495 9.303 21.4759L13.7603 24.0659C13.9913 24.1981 14.2643 24.1981 14.49 24.0659L19.929 20.9051V23.0986C19.929 23.1303 19.9133 23.1515 19.9028 23.1568L15.3983 25.7732C13.3928 26.9361 10.8255 26.2436 9.6705 24.2245ZM8.49451 14.4353C8.98801 13.5738 9.765 12.9183 10.6785 12.5853C10.6785 12.6223 10.6785 12.691 10.6785 12.7386V17.9186C10.6785 18.1829 10.815 18.4208 11.046 18.5582L16.485 21.7191L14.595 22.8132C14.5688 22.8291 14.5425 22.8238 14.532 22.8185L10.0275 20.2021C8.02726 19.0392 7.33951 16.4545 8.49451 14.4353ZM23.9663 18.0613L18.5273 14.9005L20.412 13.8063C20.4383 13.7905 20.4645 13.7905 20.475 13.801L24.9795 16.4175C26.9798 17.5803 27.6675 20.1703 26.5125 22.1842C26.019 23.0458 25.242 23.7012 24.3285 24.0342C24.3285 23.9972 24.3285 23.9285 24.3285 23.8809V18.7009C24.3338 18.4313 24.192 18.1935 23.9663 18.0613ZM25.8405 15.2229C25.809 15.2018 25.7513 15.17 25.7093 15.1436L21.252 12.5536C21.021 12.4215 20.748 12.4215 20.5223 12.5536L15.0833 15.7145V13.5262C15.0833 13.4945 15.099 13.4733 15.1095 13.468L19.614 10.8516C20.2703 10.471 20.9948 10.286 21.7035 10.286C23.1525 10.286 24.5648 11.0419 25.3418 12.395C25.83 13.2513 26.0085 14.2556 25.8405 15.2229ZM14.0595 19.1238L12.1748 18.0296C12.1485 18.0138 12.138 17.9926 12.138 17.9768V12.7386C12.138 11.6128 12.5738 10.5556 13.3665 9.75747C14.1593 8.95933 15.2093 8.52061 16.3275 8.52061C17.3145 8.52061 18.2648 8.86947 19.0103 9.49847C18.9788 9.51961 18.9158 9.55133 18.8738 9.57247L14.4165 12.1625C14.1855 12.2946 14.049 12.5325 14.049 12.802L14.0595 19.1238ZM15.0833 16.9038L17.5035 15.4978L19.9238 16.9038V19.7158L17.5035 21.1218L15.0833 19.7158V16.9038Z" fill="black"/>
</svg>
