<svg width="138" height="17" viewBox="0 0 138 17" fill="none" xmlns="http://www.w3.org/2000/svg">
<g clip-path="url(#clip0_1_805)">
<path d="M116.105 1.1084C116.105 1.1084 116.746 1.1084 117.013 1.30784C117.013 1.30784 117.282 1.50729 117.489 2.11658L121.969 15.4196C121.969 15.4196 122.031 15.5874 121.98 15.725C121.98 15.725 121.928 15.8611 121.7 15.8611H119.801C119.801 15.8611 119.574 15.8611 119.44 15.8089C119.44 15.8089 119.305 15.7566 119.223 15.5255L118.315 12.6468H113.07L112.161 15.5035C112.161 15.5035 112.099 15.6933 111.986 15.7772C111.986 15.7772 111.872 15.8611 111.625 15.8611H109.725C109.725 15.8611 109.498 15.8611 109.436 15.725C109.436 15.725 109.375 15.5874 109.436 15.4196L113.895 2.11658C113.895 2.11658 113.999 1.80163 114.102 1.6132C114.102 1.6132 114.206 1.42338 114.36 1.31886C114.36 1.31886 114.516 1.21295 114.722 1.16067C114.722 1.16067 114.928 1.1084 115.217 1.1084H116.105ZM115.713 3.94589H115.61L114.763 6.86454L113.69 10.4544H117.654L116.581 6.92641L115.713 3.94589Z" fill="black"/>
<path d="M73.4676 1.14844C73.4676 1.14844 73.7568 1.14844 73.8595 1.22272C73.8595 1.22272 73.9622 1.29561 73.9622 1.58995L73.9622 7.03932H80.3843V1.58995C80.3843 1.58995 80.3843 1.31622 80.4992 1.23234C80.4992 1.23234 80.6127 1.14844 80.86 1.14844H82.4331C82.4331 1.14844 82.7223 1.14844 82.8156 1.22272C82.8156 1.22272 82.9088 1.29561 82.9088 1.58995V15.4197C82.9088 15.4197 82.9088 15.7141 82.8156 15.7883C82.8156 15.7883 82.7223 15.8612 82.4331 15.8612H80.86C80.86 15.8612 80.6127 15.8612 80.4992 15.7773C80.4992 15.7773 80.3843 15.6934 80.3843 15.4197V9.24412H73.9622V15.4197C73.9622 15.4197 73.9622 15.7141 73.8595 15.7883C73.8595 15.7883 73.7568 15.8612 73.4676 15.8612H71.8999C71.8999 15.8612 71.6729 15.8612 71.5499 15.7773C71.5499 15.7773 71.4256 15.6934 71.4256 15.4197L71.4255 1.58995C71.4256 1.58995 71.4256 1.31622 71.5499 1.23234C71.5499 1.23234 71.6729 1.14844 71.8999 1.14844H73.4676Z" fill="black"/>
<path d="M67.1754 1.14844C67.1754 1.14844 67.4025 1.14844 67.4755 1.23234C67.4755 1.23234 67.5471 1.31761 67.5471 1.54869V3.00248C67.5471 3.00248 67.5471 3.21294 67.4755 3.29682C67.4755 3.29682 67.4025 3.38073 67.1754 3.38073H63.2536V15.4197C63.2536 15.4197 63.2536 15.7141 63.1603 15.7883C63.1603 15.7883 63.0671 15.8612 62.7779 15.8612H61.1643C61.1643 15.8612 60.917 15.8612 60.8034 15.7773C60.8034 15.7773 60.6899 15.6934 60.6899 15.4197V3.38073H56.8491C56.8491 3.38073 56.6221 3.38073 56.5599 3.29682C56.5599 3.29682 56.4978 3.21294 56.4978 3.00248L56.4977 1.54869C56.4978 1.54869 56.4978 1.31761 56.5599 1.23234C56.5599 1.23234 56.6221 1.14844 56.8491 1.14844H67.1754Z" fill="black"/>
<path d="M41.0216 1.0609C45.0538 1.0609 48.3199 4.38499 48.3199 8.48877C48.3199 12.5898 45.0538 15.9166 41.0216 15.9166H24.9336C24.3583 15.9166 23.8921 15.4422 23.8921 14.8567C23.8921 14.2712 24.3583 13.7968 24.9336 13.7968H28.6823C29.2548 13.7968 29.721 13.3223 29.721 12.7368C29.721 12.1514 29.2548 11.6769 28.6823 11.6769H27.848C27.2728 11.6769 26.8066 11.2024 26.8066 10.617C26.8066 10.0315 27.2728 9.55703 27.848 9.55703H30.3481C30.9265 9.55539 31.3751 9.07562 31.3895 8.49709C31.3895 7.91163 30.9233 7.43716 30.3481 7.43716H21.5993C21.0241 7.43716 20.5579 6.96268 20.5579 6.37722C20.5579 5.79176 21.0241 5.31729 21.5993 5.31729H28.0553C28.6337 5.31565 29.0823 4.83588 29.0967 4.25735C29.0967 3.67189 28.6305 3.19742 28.0552 3.19742H26.5994C26.0241 3.19742 25.5579 2.72295 25.5579 2.13749C25.5579 1.55202 26.0241 1.0498 26.5994 1.0498L41.0216 1.0609ZM39.8547 3.53593C37.6137 3.53593 35.8007 5.38388 35.8007 7.66191V9.31285C35.8007 11.5937 37.6137 13.4388 39.8547 13.4388C42.093 13.4388 43.9088 11.5937 43.9088 9.31285V7.66191C43.9088 5.38388 42.093 3.53593 39.8547 3.53593ZM41.2397 7.43716C41.7795 7.43716 42.2184 7.88388 42.2184 8.43327V8.56091C42.2184 9.1103 41.7795 9.55703 41.2397 9.55703H38.1971C37.6573 9.55703 37.2184 9.1103 37.2184 8.56091V8.43327C37.2184 7.88388 37.6573 7.43716 38.1971 7.43716H41.2397Z" fill="black"/>
<path d="M21.662 13.7969C22.2045 13.7969 22.6407 14.2408 22.6407 14.793V14.9206C22.6407 15.47 22.2045 15.9167 21.662 15.9167H18.0605C17.5207 15.9167 17.0818 15.47 17.0818 14.9206V14.793C17.0818 14.2408 17.5207 13.7969 18.0605 13.7969H21.662Z" fill="black"/>
<path d="M97.5055 1.13477C97.5055 1.13477 97.7731 1.13477 97.8461 1.25169C97.8461 1.25169 97.9177 1.36723 97.9177 1.61892V2.94481C97.9177 2.94481 97.9177 3.21853 97.8461 3.31343C97.8461 3.31343 97.7731 3.40832 97.5055 3.40832H92.0133C92.0133 3.40832 91.2281 3.40832 90.9078 3.76457C90.9078 3.76457 90.5889 4.12217 90.5889 4.79337V6.99817H96.8231C96.8231 6.99817 97.092 6.99817 97.165 7.10408C97.165 7.10408 97.2366 7.2086 97.2366 7.50158V8.65555C97.2366 8.65555 97.2366 8.90724 97.165 9.02142C97.165 9.02142 97.092 9.13693 96.8231 9.13693H90.5889V12.2082C90.5889 12.2082 90.5889 12.8808 90.9295 13.2274C90.9295 13.2274 91.27 13.5754 92.0133 13.5754H97.6285C97.6285 13.5754 97.9177 13.5754 97.9907 13.6799C97.9907 13.6799 98.0623 13.7845 98.0623 14.0788V15.3786C98.0623 15.3786 98.0623 15.6097 97.9799 15.7348C97.9799 15.7348 97.8975 15.8613 97.6285 15.8613H91.7443C91.7444 15.8613 90.6497 15.8613 89.9469 15.5464C89.9469 15.5464 89.2442 15.2314 88.8199 14.706C88.8199 14.706 88.3955 14.1806 88.2306 13.508C88.2306 13.508 88.0644 12.8368 88.0644 12.101V4.91717C88.0644 4.91717 88.0644 4.18132 88.2604 3.49911C88.2604 3.49911 88.4577 2.81554 88.9023 2.29012C88.9023 2.29012 89.3469 1.76609 90.0497 1.44975C90.0497 1.44975 90.7538 1.13477 91.7444 1.13477H97.5055Z" fill="black"/>
<path d="M104.769 1.14844C104.769 1.14844 105.057 1.14844 105.161 1.22272C105.161 1.22272 105.264 1.29561 105.264 1.58995V15.4197C105.264 15.4197 105.264 15.7141 105.161 15.7883C105.161 15.7883 105.057 15.8612 104.769 15.8612H103.201C103.201 15.8612 102.954 15.8612 102.841 15.7773C102.841 15.7773 102.727 15.6934 102.727 15.4197V1.58995C102.727 1.58995 102.727 1.31622 102.841 1.23234C102.841 1.23234 102.954 1.14844 103.201 1.14844H104.769Z" fill="black"/>
<path d="M23.3305 1.07764C23.8703 1.07764 24.3065 1.52436 24.3065 2.07375V2.20416C24.3065 2.75355 23.8703 3.1975 23.3305 3.1975H19.3092C18.7694 3.1975 18.3304 2.75355 18.3304 2.20416V2.07375C18.3304 1.52436 18.7694 1.07764 19.3092 1.07764H23.3305Z" fill="black"/>
<path d="M24.5792 9.55713C25.119 9.55713 25.5579 10.0039 25.5579 10.5532V10.6809C25.5579 11.2303 25.119 11.677 24.5792 11.677H22.3708C21.831 11.677 21.3921 11.2303 21.3921 10.6809V10.5532C21.3921 10.0039 21.831 9.55713 22.3708 9.55713H24.5792Z" fill="black"/>
</g>
<defs>
<clipPath id="clip0_1_805">
<rect width="105" height="15" fill="white" transform="translate(17 1)"/>
</clipPath>
</defs>
</svg>
