<svg width="138" height="37" viewBox="0 0 138 37" fill="none" xmlns="http://www.w3.org/2000/svg">
<g clip-path="url(#clip0_1_786)">
<path d="M26.4657 25.5682C26.8671 26.6342 27.4229 27.5458 28.1332 28.3027C28.8435 29.0598 29.6849 29.6391 30.6576 30.0408C31.6303 30.4425 32.6879 30.6433 33.8305 30.6433C34.9422 30.6433 35.9844 30.4347 36.9571 30.0175C37.9299 29.6003 38.779 29.0133 39.5046 28.2564C40.2303 27.4993 40.7939 26.5956 41.1953 25.545C41.5968 24.4944 41.7975 23.3204 41.7975 22.0225V2H46.661V34.4438H41.8438V31.4312C40.763 32.5744 39.4892 33.455 38.0224 34.0731C36.5555 34.691 34.9731 35 33.2747 35C31.5454 35 29.9319 34.6987 28.4342 34.0962C26.9366 33.4937 25.6396 32.6363 24.5434 31.5239C23.4473 30.4115 22.5826 29.0753 21.9496 27.5148C21.3165 25.9544 21 24.2164 21 22.3006V2H25.8635V22.0225C25.8635 23.3204 26.0642 24.5021 26.4657 25.5682ZM55.0444 2V13.8188C56.1252 12.7374 57.3759 11.88 58.7963 11.2465C60.2167 10.613 61.7608 10.2963 63.4282 10.2963C65.1575 10.2963 66.7785 10.6207 68.2917 11.2696C69.8048 11.9184 71.1171 12.7991 72.2288 13.9115C73.3406 15.0239 74.2207 16.3371 74.8691 17.8511C75.5176 19.3652 75.8418 20.9719 75.8418 22.6714C75.8418 24.3707 75.5176 25.9698 74.8691 27.4683C74.2207 28.967 73.3406 30.2725 72.2288 31.3847C71.1171 32.4971 69.8048 33.3778 68.2917 34.0266C66.7785 34.6755 65.1574 34.9999 63.4282 34.9999C61.7607 34.9999 60.2091 34.6832 58.7731 34.0497C57.3372 33.4163 56.0788 32.5589 54.9981 31.4774V34.4437H50.3662V2H55.0444ZM55.577 25.8694C55.9939 26.8582 56.573 27.7234 57.3141 28.465C58.0552 29.2065 58.9198 29.7937 59.9079 30.2262C60.8962 30.6588 61.9614 30.8751 63.104 30.8751C64.2158 30.8751 65.2656 30.6588 66.2537 30.2262C67.2418 29.7937 68.0986 29.2066 68.8245 28.465C69.5501 27.7235 70.1291 26.8582 70.5614 25.8694C70.9937 24.8806 71.2099 23.8147 71.2099 22.6714C71.2099 21.5281 70.9937 20.4543 70.5614 19.4501C70.1291 18.4459 69.5501 17.5731 68.8245 16.8315C68.0987 16.09 67.2419 15.5106 66.2537 15.0935C65.2655 14.6764 64.2156 14.4677 63.104 14.4677C61.9924 14.4677 60.9425 14.6763 59.9544 15.0935C58.9662 15.5107 58.1016 16.09 57.3604 16.8315C56.6194 17.5731 56.0326 18.4459 55.6003 19.4501C55.168 20.4543 54.9519 21.5281 54.9519 22.6714C54.9518 23.8147 55.1602 24.8806 55.577 25.8694ZM78.4815 17.8975C79.0991 16.4144 79.9484 15.1089 81.0291 13.9811C82.1097 12.8533 83.3914 11.965 84.8736 11.3161C86.3559 10.6673 87.9616 10.3429 89.6908 10.3429C91.3892 10.3429 92.9641 10.6519 94.4155 11.2698C95.8668 11.8878 97.1174 12.7453 98.1673 13.8422C99.2172 14.939 100.036 16.2369 100.622 17.7354C101.209 19.234 101.502 20.864 101.502 22.6252V24.1548H82.2798C82.4342 25.1126 82.743 26.001 83.2062 26.8197C83.6695 27.6385 84.2483 28.3492 84.9431 28.9517C85.6379 29.5543 86.4254 30.0255 87.3055 30.3653C88.1855 30.7052 89.1196 30.8752 90.1078 30.8752C92.9179 30.8752 95.1876 29.7164 96.9168 27.399L100.298 29.9018C99.1247 31.4776 97.6734 32.7136 95.9442 33.6097C94.2148 34.5057 92.2694 34.9537 90.1079 34.9537C88.3477 34.9537 86.7034 34.6446 85.1749 34.0267C83.6463 33.4088 82.3185 32.5436 81.1914 31.4312C80.0643 30.3188 79.1765 29.0133 78.5281 27.5148C77.8796 26.0162 77.5553 24.3862 77.5553 22.625C77.5551 20.9566 77.864 19.3807 78.4815 17.8975ZM84.9894 16.0667C83.677 17.1637 82.8047 18.6236 82.3724 20.4467H96.7778C96.3764 18.6236 95.5194 17.1637 94.207 16.0667C92.8946 14.9699 91.3584 14.4214 89.5983 14.4214C87.8381 14.4214 86.3018 14.9699 84.9894 16.0667ZM110.256 16.5997C109.268 17.6811 108.774 19.1488 108.774 21.0028V34.4439H104.096V10.8062H108.728V13.7262C109.314 12.7683 110.079 12.0113 111.021 11.4551C111.962 10.8988 113.082 10.6207 114.379 10.6207H116V14.9775H114.055C112.511 14.9776 111.244 15.5182 110.256 16.5997Z" fill="#010202"/>
</g>
<defs>
<clipPath id="clip0_1_786">
<rect width="95" height="33" fill="white" transform="translate(21 2)"/>
</clipPath>
</defs>
</svg>
