<svg width="28" height="28" viewBox="0 0 28 28" fill="none" xmlns="http://www.w3.org/2000/svg">
<g clip-path="url(#clip0_1_850)">
<path d="M0.8794 0.291504H0.869029C0.743437 0.292157 0.619453 0.323319 0.505554 0.382858C0.391656 0.442396 0.290531 0.528906 0.209097 0.636472C0.127662 0.744038 0.0678389 0.870122 0.0337182 1.0061C-0.00040251 1.14208 -0.00801556 1.28474 0.0113997 1.42434L3.69703 26.5998C3.7914 27.2333 4.28088 27.7023 4.85229 27.7082H22.5369C22.7448 27.7105 22.9465 27.6291 23.1057 27.4786C23.2649 27.3282 23.371 27.1187 23.4049 26.888L27.0905 1.429C27.1099 1.28951 27.1023 1.14694 27.0683 1.01105C27.0342 0.87515 26.9745 0.749125 26.8932 0.641579C26.8118 0.534033 26.7108 0.447499 26.5971 0.387888C26.4833 0.328276 26.3594 0.296991 26.2339 0.296171H26.2225L0.8794 0.291504ZM16.4018 18.4857H10.7572L9.22859 9.5035H17.7696L16.4007 18.4868L16.4018 18.4857Z"/>
</g>
<defs>
<clipPath id="clip0_1_850">
<rect width="28" height="28"/>
</clipPath>
</defs>
</svg>
