<svg width="24" height="24" viewBox="0 0 24 24" fill="none" xmlns="http://www.w3.org/2000/svg">
<g clip-path="url(#clip0_1_74)">
<path fill-rule="evenodd" clip-rule="evenodd" d="M14.07 1.19487C14.2254 1.46531 14.3257 1.76382 14.3652 2.0732C14.4047 2.38258 14.3826 2.69672 14.3002 2.99752C14.2177 3.29832 14.0765 3.57983 13.8848 3.82584C13.6931 4.07184 13.4546 4.27747 13.183 4.43087L6.073 8.47087C5.98099 8.52306 5.90441 8.59864 5.85102 8.68996C5.79763 8.78128 5.76934 8.88509 5.769 8.99087V15.3339C5.76934 15.4397 5.79763 15.5435 5.85102 15.6348C5.90441 15.7261 5.98099 15.8017 6.073 15.8539L11.701 19.0529C11.7921 19.1047 11.8952 19.1319 12 19.1319C12.1048 19.1319 12.2079 19.1047 12.299 19.0529L17.927 15.8549C18.0192 15.8026 18.0958 15.7269 18.1492 15.6354C18.2026 15.5438 18.2308 15.4398 18.231 15.3339V11.3899L13.171 14.2279C12.6204 14.5369 11.97 14.6157 11.3616 14.4471C10.7531 14.2785 10.236 13.8762 9.923 13.3279C9.76928 13.0566 9.67074 12.7576 9.63305 12.4482C9.59536 12.1387 9.61926 11.8248 9.70337 11.5246C9.78749 11.2243 9.93016 10.9437 10.1232 10.6989C10.3162 10.454 10.5557 10.2498 10.828 10.0979L18.067 6.03587C20.272 4.79987 23 6.38287 23 8.90087V15.8149C23 17.4349 22.127 18.9299 20.713 19.7339L14.252 23.4049C13.5655 23.7948 12.7895 23.9998 12 23.9998C11.2105 23.9998 10.4345 23.7948 9.748 23.4049L3.287 19.7339C2.59342 19.3411 2.01636 18.7714 1.61462 18.083C1.21287 17.3946 1.00079 16.612 1 15.8149V8.50987C1 6.88987 1.873 5.39487 3.287 4.59187L10.817 0.311873C11.366 -0.000109702 12.0161 -0.0823635 12.6255 0.0830506C13.2348 0.248465 13.7541 0.648127 14.07 1.19487Z" fill="url(#paint0_linear_1_74)"/>
</g>
<defs>
<linearGradient id="paint0_linear_1_74" x1="17.558" y1="3.62887" x2="6.356" y2="21.3399" gradientUnits="userSpaceOnUse">
<stop stop-color="#FFB45B"/>
<stop offset="1" stop-color="#FF8A00"/>
</linearGradient>
<clipPath id="clip0_1_74">
<rect width="24" height="24" fill="white"/>
</clipPath>
</defs>
</svg>
