<svg width="28" height="28" viewBox="0 0 28 28" fill="none" xmlns="http://www.w3.org/2000/svg">
<g clip-path="url(#clip0_1_855)">
<path fill-rule="evenodd" clip-rule="evenodd" d="M14.0676 0.466797C10.7157 0.467811 7.47753 1.64141 4.95117 3.7708C2.39585 5.92585 0.707205 8.88193 0.18152 12.1204C-0.354352 15.3704 0.300638 18.6992 2.03338 21.5321C3.74434 24.3371 6.43685 26.4578 9.62428 27.5111C10.332 27.6389 10.5821 27.204 10.5821 26.8381V24.4787C6.65724 25.3215 5.82883 22.6129 5.82883 22.6129C5.57207 21.7781 5.01931 21.0574 4.26759 20.5773C2.9989 19.7252 4.3709 19.7252 4.3709 19.7252C4.81504 19.7877 5.23986 19.9492 5.61159 20.1965C5.98428 20.4439 6.29421 20.7724 6.51918 21.1569C6.70938 21.4985 6.96718 21.7991 7.27614 22.0427C7.73716 22.4095 8.30274 22.632 8.89772 22.6807C9.49271 22.7294 10.0889 22.6019 10.6072 22.3152C10.6622 21.6143 10.9683 20.9553 11.4703 20.4579C8.34787 20.1088 5.06897 18.916 5.06897 13.6445C5.04557 12.272 5.5606 10.9418 6.51049 9.92146C6.0892 8.72291 6.13834 7.41648 6.64855 6.25066C6.64855 6.25066 7.83035 5.87546 10.5126 7.67306C12.8146 7.04846 15.2501 7.04846 17.5521 7.67306C20.2353 5.87546 21.4084 6.25066 21.4084 6.25066C21.9259 7.40146 21.9877 8.70253 21.5812 9.89626C22.5306 10.9165 23.0452 12.2463 23.0218 13.6184C23.0218 18.9505 19.7352 20.1172 16.603 20.4317C16.939 20.7659 17.1988 21.1663 17.3639 21.6077C17.528 22.0483 17.5956 22.5187 17.5608 22.9881V26.7952C17.5608 27.2469 17.8119 27.596 18.5263 27.4597C21.6777 26.3791 24.33 24.2525 26.011 21.4584C27.7132 18.6369 28.3512 15.3324 27.8166 12.1073C27.292 8.89339 25.6219 5.95774 23.0952 3.80813C20.5973 1.68476 17.3937 0.499032 14.0676 0.466797Z" fill="#F9F9F9"/>
</g>
<defs>
<clipPath id="clip0_1_855">
<rect width="28" height="28"/>
</clipPath>
</defs>
</svg>
