<svg width="27" height="27" viewBox="0 0 27 27" fill="none" xmlns="http://www.w3.org/2000/svg">
<g clip-path="url(#clip0_1_936)">
<path fill-rule="evenodd" clip-rule="evenodd" d="M0 0H27V27H0V0Z" fill="white"/>
<path fill-rule="evenodd" clip-rule="evenodd" d="M11.258 14.2494C11.258 14.2494 10.6131 14.6246 11.7174 14.7514C13.0557 14.9042 13.7392 14.8822 15.2135 14.6033C15.2135 14.6033 15.6016 14.8463 16.1435 15.0566C12.8376 16.4731 8.66171 14.9746 11.258 14.2494ZM10.8539 12.4009C10.8539 12.4009 10.1304 12.9364 11.2357 13.0507C12.6653 13.1983 13.7937 13.2103 15.7476 12.8344C15.7476 12.8344 16.0174 13.1082 16.4419 13.2578C12.4455 14.4267 7.99454 13.3498 10.8539 12.4009Z" fill="#3174B9"/>
<path fill-rule="evenodd" clip-rule="evenodd" d="M14.259 9.26503C15.0739 10.2031 14.0454 11.0468 14.0454 11.0468C14.0454 11.0468 16.1137 9.97927 15.1637 8.64198C14.2768 7.39546 13.5964 6.77619 17.2791 4.64063C17.279 4.64048 11.4982 6.08381 14.259 9.26503Z" fill="#CA3132"/>
<path fill-rule="evenodd" clip-rule="evenodd" d="M18.6312 15.6171C18.6312 15.6171 19.1085 16.0107 18.1053 16.3151C16.1977 16.8929 10.164 17.0671 8.48802 16.338C7.88599 16.0758 9.01554 15.7123 9.37091 15.6356C9.74154 15.5554 9.95305 15.57 9.95305 15.57C9.28308 15.0982 5.62254 16.4966 8.094 16.8978C14.8332 17.9905 20.379 16.4058 18.6312 15.6171ZM11.5682 10.4856C11.5682 10.4856 8.49951 11.2147 10.4817 11.4797C11.3189 11.5916 12.9866 11.5658 14.5413 11.4354C15.8115 11.3288 17.0864 11.1008 17.0864 11.1008C17.0864 11.1008 16.6389 11.2928 16.3146 11.5139C13.1979 12.3337 7.17778 11.9519 8.91104 11.1138C10.3765 10.4049 11.5682 10.4856 11.5682 10.4856ZM17.0737 13.5626C20.2417 11.9167 18.777 10.3347 17.7543 10.5479C17.5043 10.6002 17.3921 10.6453 17.3921 10.6453C17.3921 10.6453 17.4854 10.4993 17.6627 10.4365C19.6855 9.72567 21.2409 12.5337 17.0105 13.6458C17.0104 13.6458 17.0591 13.6018 17.0737 13.5626Z" fill="#3174B9"/>
<path fill-rule="evenodd" clip-rule="evenodd" d="M15.1638 1.19141C15.1638 1.19141 16.918 2.94667 13.4996 5.64492C10.7582 7.81018 12.8746 9.04437 13.4987 10.4551C11.8983 9.01131 10.7243 7.74014 11.5118 6.55736C12.668 4.82114 15.8716 3.97916 15.1638 1.19141Z" fill="#CA3132"/>
<path fill-rule="evenodd" clip-rule="evenodd" d="M11.8798 18.0237C14.9203 18.2181 19.5902 17.9157 19.701 16.4766C19.701 16.4766 19.4884 17.0221 17.188 17.4548C14.5925 17.9434 11.3908 17.8866 9.49255 17.5732C9.49255 17.5732 9.88154 17.8951 11.8798 18.0237Z" fill="#3174B9"/>
<path fill-rule="evenodd" clip-rule="evenodd" d="M19.5605 20.6043H19.4681V20.5524H19.7176V20.6043H19.6251V20.8631H19.5605V20.6043ZM20.0584 20.6171H20.0572L19.9654 20.863H19.9232L19.8319 20.6171H19.8307V20.863H19.7694V20.5523H19.8595L19.9441 20.7721L20.0287 20.5523H20.1179V20.863H20.0585V20.6171H20.0584ZM11.3816 23.5213C11.0949 23.7698 10.7918 23.9096 10.5196 23.9096C10.1319 23.9096 9.92149 23.6766 9.92149 23.3039C9.92149 22.9003 10.1467 22.6051 11.0482 22.6051H11.3815V23.5213H11.3816ZM12.173 24.4141V21.6502C12.173 20.9438 11.7702 20.4776 10.7991 20.4776C10.2325 20.4776 9.73575 20.6176 9.33192 20.7959L9.44818 21.2854C9.76629 21.1686 10.1775 21.0603 10.5812 21.0603C11.1407 21.0603 11.3815 21.2854 11.3815 21.7515V22.1009H11.1019C9.74289 22.1009 9.12965 22.6282 9.12965 23.4209C9.12965 24.1039 9.53376 24.4921 10.2945 24.4921C10.7835 24.4921 11.1488 24.2903 11.4899 23.9949L11.5519 24.4141H12.173ZM14.8144 24.4141H13.8276L12.6393 20.548H13.5014L14.2389 22.9237L14.403 23.6376C14.7751 22.6051 15.0391 21.5569 15.1712 20.548H16.0094C15.785 21.8209 15.3807 23.2186 14.8144 24.4141ZM18.6016 23.5213C18.314 23.7698 18.0109 23.9096 17.7393 23.9096C17.3516 23.9096 17.1415 23.6766 17.1415 23.3039C17.1415 22.9003 17.3668 22.6051 18.2678 22.6051H18.6016V23.5213ZM19.3933 24.4141V21.6502C19.3933 20.9438 18.9892 20.4776 18.019 20.4776C17.4519 20.4776 16.9553 20.6176 16.5515 20.7959L16.6677 21.2854C16.9858 21.1686 17.3979 21.0603 17.8018 21.0603C18.3604 21.0603 18.6015 21.2854 18.6015 21.7515V22.1009H18.3219C16.9627 22.1009 16.3499 22.6282 16.3499 23.4209C16.3499 24.1039 16.7532 24.4921 17.5141 24.4921C18.0035 24.4921 18.3682 24.2903 18.7102 23.9949L18.7725 24.4141H19.3933ZM8.26189 25.0711C8.03637 25.4007 7.67162 25.6616 7.27283 25.8088L6.88202 25.3486C7.18584 25.1926 7.4461 24.9409 7.56726 24.7067C7.67162 24.498 7.71518 24.2296 7.71518 23.5873V19.1729H8.55632V23.5263C8.55632 24.3855 8.48769 24.7328 8.26189 25.0711Z" fill="#CA3132"/>
</g>
<defs>
<clipPath id="clip0_1_936">
<rect width="27" height="27" fill="white"/>
</clipPath>
</defs>
</svg>
