<svg width="27" height="27" viewBox="0 0 27 27" fill="none" xmlns="http://www.w3.org/2000/svg">
<g clip-path="url(#clip0_1_881)">
<path d="M13.4027 0C6.54839 4.91597e-07 6.97642 2.98799 6.97642 2.98799L6.98406 6.08351H13.5249V7.01294H4.38605C4.38605 7.01294 0 6.51292 0 13.4651C-4.89037e-07 20.4174 3.82824 20.1708 3.82824 20.1708H6.11296V16.9447C6.11296 16.9447 5.98981 13.0964 9.88008 13.0964C13.7703 13.0964 16.3675 13.0964 16.3675 13.0964C16.3675 13.0964 20.0123 13.1557 20.0123 9.55541C20.0123 5.95515 20.0123 3.60248 20.0123 3.60248C20.0123 3.60248 20.5657 0 13.4027 0ZM9.79602 2.08161C10.4468 2.0816 10.9728 2.61034 10.9728 3.26451C10.9728 3.91869 10.4468 4.44742 9.79602 4.44742C9.14525 4.44742 8.61928 3.91869 8.61928 3.26451C8.61928 2.61034 9.14525 2.08161 9.79602 2.08161Z" fill="url(#paint0_linear_1_881)"/>
<path d="M13.5973 27C20.4516 27 20.0236 24.0121 20.0236 24.0121L20.0159 20.9165H13.4751V19.9871H22.614C22.614 19.9871 27 20.4871 27 13.5349C27 6.58267 23.1718 6.82921 23.1718 6.82921H20.887V10.0553C20.887 10.0553 21.0102 13.9036 17.1199 13.9036C13.2297 13.9036 10.6325 13.9036 10.6325 13.9036C10.6325 13.9036 6.9877 13.8444 6.9877 17.4446C6.9877 21.0449 6.9877 23.3976 6.9877 23.3976C6.9877 23.3976 6.43431 27 13.5973 27ZM17.204 24.9184C16.5532 24.9184 16.0272 24.3897 16.0272 23.7355C16.0272 23.0814 16.5532 22.5526 17.204 22.5526C17.8548 22.5526 18.3807 23.0814 18.3807 23.7355C18.3807 24.3897 17.8548 24.9184 17.204 24.9184Z" fill="url(#paint1_linear_1_881)"/>
</g>
<defs>
<linearGradient id="paint0_linear_1_881" x1="2.59475" y1="2.36004" x2="16.0154" y2="15.7555" gradientUnits="userSpaceOnUse">
<stop stop-color="#387EB8"/>
<stop offset="1" stop-color="#366994"/>
</linearGradient>
<linearGradient id="paint1_linear_1_881" x1="10.8075" y1="10.9262" x2="25.2179" y2="24.6602" gradientUnits="userSpaceOnUse">
<stop stop-color="#FFE052"/>
<stop offset="1" stop-color="#FFC331"/>
</linearGradient>
<clipPath id="clip0_1_881">
<rect width="27" height="27" fill="white"/>
</clipPath>
</defs>
</svg>
