<svg width="27" height="27" viewBox="0 0 27 27" fill="none" xmlns="http://www.w3.org/2000/svg">
<path d="M13.3219 4.43994C8.43562 4.43994 4.45874 8.41869 4.45874 13.3031C4.45874 18.1874 8.43749 22.1662 13.3219 22.1662C18.2062 22.1662 22.185 18.1874 22.185 13.3031C22.185 8.41869 18.2062 4.43994 13.3219 4.43994ZM13.3087 5.22744C13.4603 5.23137 13.6043 5.29453 13.7101 5.40347C13.8159 5.5124 13.875 5.65848 13.875 5.81057C13.875 5.96522 13.8136 6.11354 13.7042 6.2229C13.5948 6.33226 13.4465 6.39369 13.2919 6.39369C13.1372 6.39369 12.9889 6.33226 12.8795 6.2229C12.7702 6.11354 12.7087 5.96522 12.7087 5.81057C12.7087 5.73255 12.7243 5.65532 12.7547 5.58345C12.785 5.51158 12.8295 5.44653 12.8855 5.39215C12.9414 5.33778 13.0077 5.29518 13.0804 5.26689C13.1531 5.2386 13.2308 5.22518 13.3087 5.22744ZM14.6437 6.18744C15.6674 6.37918 16.6371 6.79146 17.4854 7.39565C18.3337 7.99983 19.0404 8.78144 19.5562 9.68619L18.8681 11.2387C18.75 11.5068 18.8719 11.8218 19.1381 11.9418L20.4619 12.5287C20.5029 12.9425 20.5079 13.359 20.4769 13.7737H19.74C19.6669 13.7737 19.6369 13.8224 19.6369 13.8937V14.2312C19.6369 15.0262 19.1887 15.2006 18.795 15.2437C18.42 15.2868 18.0056 15.0862 17.9531 14.8574C17.7319 13.6143 17.3644 13.3499 16.7831 12.8906C17.505 12.4331 18.255 11.7562 18.255 10.8524C18.255 9.87557 17.5856 9.26057 17.13 8.95869C16.4887 8.53682 15.78 8.45244 15.5887 8.45244H7.97624C9.02887 7.27652 10.4398 6.48043 11.9906 6.18744L12.8887 7.12869C13.0912 7.34057 13.4269 7.34994 13.6387 7.14557L14.6437 6.18744ZM6.35624 10.5037C6.50795 10.5081 6.65197 10.5715 6.75771 10.6803C6.86344 10.7892 6.92255 10.935 6.92249 11.0868C6.92249 11.2415 6.86105 11.3898 6.7517 11.4991C6.64234 11.6085 6.49402 11.6699 6.33937 11.6699C6.18471 11.6699 6.03639 11.6085 5.92703 11.4991C5.81768 11.3898 5.75624 11.2415 5.75624 11.0868C5.75621 11.0088 5.77183 10.9316 5.80219 10.8597C5.83254 10.7878 5.87701 10.7228 5.93296 10.6684C5.9889 10.614 6.0552 10.5714 6.1279 10.5431C6.20061 10.5148 6.27826 10.5014 6.35624 10.5037ZM20.2594 10.5299C20.4111 10.5343 20.5551 10.5977 20.6608 10.7066C20.7666 10.8155 20.8257 10.9613 20.8256 11.1131C20.8256 11.2677 20.7642 11.416 20.6548 11.5254C20.5455 11.6348 20.3971 11.6962 20.2425 11.6962C20.0878 11.6962 19.9395 11.6348 19.8302 11.5254C19.7208 11.416 19.6594 11.2677 19.6594 11.1131C19.6593 11.035 19.675 10.9578 19.7053 10.8859C19.7357 10.8141 19.7801 10.749 19.8361 10.6947C19.892 10.6403 19.9583 10.5977 20.031 10.5694C20.1037 10.5411 20.1814 10.5277 20.2594 10.5299ZM7.45499 10.6237H8.47124V15.2062H6.41999C6.16666 14.3166 6.08771 13.3864 6.18749 12.4668L7.44374 11.9081C7.71187 11.7881 7.83374 11.4749 7.71374 11.2068L7.45499 10.6237ZM11.6962 10.6724H14.1169C14.2425 10.6724 15 10.8168 15 11.3849C15 11.8556 14.4187 12.0243 13.9406 12.0243H11.6944L11.6962 10.6724ZM11.6962 13.9649H13.5506C13.7194 13.9649 14.4562 14.0137 14.6906 14.9549C14.7637 15.2437 14.9269 16.1849 15.0375 16.4868C15.1481 16.8243 15.5962 17.4993 16.0744 17.4993H19.1006C18.8978 17.7709 18.676 18.0278 18.4369 18.2681L17.205 18.0037C16.9181 17.9418 16.635 18.1256 16.5731 18.4124L16.2806 19.7774C15.34 20.2035 14.3186 20.4216 13.286 20.4167C12.2534 20.4119 11.234 20.1842 10.2975 19.7493L10.005 18.3843C9.94312 18.0974 9.66187 17.9137 9.37499 17.9756L8.16937 18.2343C7.94564 18.0035 7.73767 17.758 7.54687 17.4993H13.41C13.4756 17.4993 13.5206 17.4881 13.5206 17.4262V15.3524C13.5206 15.2924 13.4756 15.2793 13.41 15.2793H11.6944L11.6962 13.9649ZM8.99062 18.7143C9.14233 18.7187 9.28635 18.7821 9.39208 18.891C9.49782 18.9998 9.55693 19.1457 9.55687 19.2974C9.55687 19.4521 9.49543 19.6004 9.38607 19.7098C9.27672 19.8191 9.1284 19.8806 8.97374 19.8806C8.81909 19.8806 8.67077 19.8191 8.56141 19.7098C8.45205 19.6004 8.39062 19.4521 8.39062 19.2974C8.39058 19.2194 8.40621 19.1422 8.43656 19.0703C8.46692 18.9985 8.51138 18.9334 8.56733 18.879C8.62328 18.8247 8.68957 18.7821 8.76228 18.7538C8.83498 18.7255 8.91263 18.7121 8.99062 18.7143ZM17.625 18.7406C17.7767 18.745 17.9207 18.8083 18.0265 18.9172C18.1322 19.0261 18.1913 19.1719 18.1912 19.3237C18.1912 19.4783 18.1298 19.6267 18.0204 19.736C17.9111 19.8454 17.7628 19.9068 17.6081 19.9068C17.4535 19.9068 17.3051 19.8454 17.1958 19.736C17.0864 19.6267 17.025 19.4783 17.025 19.3237C17.025 19.2457 17.0406 19.1684 17.0709 19.0966C17.1013 19.0247 17.1458 18.9597 17.2017 18.9053C17.2577 18.8509 17.3239 18.8083 17.3967 18.78C17.4694 18.7517 17.547 18.7383 17.625 18.7406Z" fill="black"/>
<path fill-rule="evenodd" clip-rule="evenodd" d="M21.69 13.3032C21.69 15.5226 20.8084 17.6511 19.2391 19.2204C17.6697 20.7897 15.5413 21.6713 13.3219 21.6713C11.1025 21.6713 8.97407 20.7897 7.40474 19.2204C5.83541 17.6511 4.95377 15.5226 4.95377 13.3032C4.95377 11.0839 5.83541 8.95539 7.40474 7.38606C8.97407 5.81674 11.1025 4.9351 13.3219 4.9351C15.5413 4.9351 17.6697 5.81674 19.2391 7.38606C20.8084 8.95539 21.69 11.0839 21.69 13.3032ZM21.5325 12.4951L22.8375 13.3032L21.5325 14.1113L22.6538 15.1595L21.2175 15.6976L22.1138 16.9445L20.5969 17.192L21.2344 18.5907L19.6988 18.5363L20.0513 20.0326L18.555 19.6801L18.6094 21.2157L17.2107 20.5782L16.9632 22.0951L15.7163 21.1988L15.1782 22.6351L14.13 21.5138L13.3219 22.8188L12.5138 21.5138L11.4657 22.6351L10.9275 21.1988L9.68065 22.0951L9.43315 20.5782L8.0344 21.2157L8.08878 19.6801L6.59253 20.0326L6.94503 18.5363L5.4094 18.5907L6.0469 17.192L4.53002 16.9445L5.42628 15.6976L3.99002 15.1595L5.11127 14.1113L3.80627 13.3032L5.11127 12.4951L3.99002 11.447L5.42628 10.9088L4.53002 9.66197L6.0469 9.41447L5.4094 8.01572L6.94503 8.0701L6.59253 6.57385L8.08878 6.92635L8.0344 5.39072L9.43315 6.02822L9.68065 4.51135L10.9275 5.4076L11.4657 3.97135L12.5138 5.0926L13.3219 3.7876L14.13 5.0926L15.1782 3.97135L15.7163 5.4076L16.9632 4.51135L17.2107 6.02822L18.6094 5.39072L18.555 6.92635L20.0513 6.57385L19.6988 8.0701L21.2344 8.01572L20.5969 9.41447L22.1138 9.66197L21.2175 10.9088L22.6538 11.447L21.5325 12.4951Z" fill="black" stroke="black" stroke-width="3" stroke-linecap="round" stroke-linejoin="round"/>
</svg>
